<!DOCTYPE svg PUBLIC "-//W3C//DTD SVG 20010904//EN" "http://www.w3.org/TR/2001/REC-SVG-20010904/DTD/svg10.dtd">
<svg version="1.0" xmlns="http://www.w3.org/2000/svg" width="542px" height="210px" viewBox="0 0 5420 2100" preserveAspectRatio="xMidYMid meet">
<g id="layer101" fill="#005796" stroke="none">
 <path d="M0 1050 l0 -1050 2710 0 2710 0 0 1050 0 1050 -2710 0 -2710 0 0 -1050z"/>
 </g>
<g id="layer102" fill="#136494" stroke="none">
 <path d="M0 1050 l0 -1050 2710 0 2710 0 0 1050 0 1050 -2710 0 -2710 0 0 -1050z m595 494 c15 -16 83 -64 90 -64 9 0 94 -60 117 -82 10 -10 23 -18 29 -18 8 0 10 -13 5 -37 -3 -21 -9 -54 -12 -73 -3 -19 -12 -48 -19 -65 -7 -16 -17 -48 -20 -70 -4 -22 -12 -46 -17 -52 -6 -7 -8 -19 -5 -28 4 -8 2 -17 -3 -20 -19 -12 -10 -34 29 -74 22 -23 42 -41 45 -41 3 0 5 33 5 73 0 100 19 172 66 246 98 153 289 201 460 115 38 -20 79 -45 91 -55 11 -10 24 -19 29 -19 14 0 55 -42 55 -57 0 -8 7 -16 15 -19 8 -4 15 -13 15 -20 0 -8 10 -19 23 -25 19 -8 30 -6 58 10 49 30 80 43 109 45 14 2 33 6 42 10 35 16 187 -13 263 -50 56 -26 146 -114 169 -166 9 -18 20 -40 25 -48 5 -8 13 -28 17 -45 10 -31 33 -40 120 -49 23 -2 47 -7 53 -11 28 -17 39 3 37 70 -1 36 1 68 5 70 3 3 7 15 7 28 0 13 8 36 17 51 10 15 25 41 34 59 21 41 93 83 183 108 76 20 280 9 334 -19 42 -21 88 -32 94 -22 8 13 459 5 472 -8 4 -4 9 -27 10 -50 2 -49 10 -53 27 -15 12 27 13 27 27 9 7 -11 16 -18 18 -15 2 2 7 36 10 74 5 54 11 74 27 87 12 10 25 16 30 13 4 -3 53 4 108 15 54 11 119 20 143 20 25 0 48 3 51 6 3 4 21 8 39 10 18 2 42 4 53 6 18 3 20 -3 20 -60 l0 -63 60 1 c33 0 89 -6 124 -15 35 -9 65 -14 68 -11 3 2 -1 14 -7 26 -6 11 -10 38 -8 58 3 33 6 37 33 40 17 2 37 5 45 9 8 3 31 7 50 9 19 2 46 8 60 13 14 5 53 15 88 22 l62 13 0 42 0 42 53 12 c28 6 75 14 102 16 28 3 57 8 65 11 8 4 21 5 29 4 7 -1 20 1 30 5 39 16 60 10 72 -21 7 -16 11 -33 10 -37 0 -4 5 -25 13 -45 8 -21 17 -57 20 -80 3 -23 11 -54 18 -70 6 -15 10 -32 9 -37 -1 -4 3 -13 8 -20 5 -6 15 -43 21 -81 7 -39 16 -74 21 -79 5 -6 9 -22 9 -37 0 -15 4 -30 9 -33 7 -5 19 -48 26 -91 0 -5 4 -17 7 -25 4 -8 9 -26 12 -40 2 -14 12 -52 21 -85 9 -33 18 -76 21 -95 3 -19 9 -39 14 -44 6 -6 10 -21 10 -34 0 -13 4 -31 9 -40 4 -9 11 -33 15 -53 6 -35 6 -36 -36 -49 -24 -7 -50 -15 -58 -18 -8 -3 -19 -4 -23 -3 -5 1 -32 -9 -60 -23 -29 -13 -69 -27 -90 -31 -20 -4 -40 -11 -43 -16 -9 -15 -42 -10 -52 7 -5 9 -7 25 -5 35 3 11 1 19 -5 19 -12 0 -26 -36 -19 -48 12 -18 -25 -43 -84 -57 -35 -9 -84 -24 -109 -35 -25 -10 -66 -21 -93 -25 -26 -4 -50 -11 -53 -16 -8 -13 -48 -11 -62 3 -7 7 -12 20 -12 30 0 10 -9 37 -20 61 -10 23 -20 55 -22 70 -3 25 2 31 31 40 19 7 36 18 39 24 5 18 -25 28 -43 13 -28 -23 -91 -51 -124 -56 -19 -3 -40 -8 -45 -13 -14 -10 -107 -11 -121 -1 -5 4 -28 11 -50 14 -22 4 -67 20 -100 36 -33 16 -61 27 -64 25 -2 -3 -5 -16 -7 -31 -1 -14 -8 -48 -14 -74 -7 -27 -9 -53 -6 -59 4 -5 2 -13 -4 -16 -6 -4 -10 -20 -8 -37 l3 -30 -85 -3 c-47 -1 -113 -6 -146 -10 l-62 -8 -12 37 c-12 39 -19 43 -39 23 -9 -9 -59 -11 -193 -10 -100 2 -183 4 -184 6 -2 2 -6 17 -8 33 -12 98 -29 221 -32 231 -4 15 -31 7 -59 -17 -11 -10 -38 -23 -60 -30 -22 -7 -44 -16 -49 -21 -6 -5 -18 -9 -29 -9 -29 0 -11 -17 20 -18 15 0 52 -7 81 -14 l53 -14 -54 -80 c-29 -44 -56 -86 -60 -94 -9 -18 -28 -47 -84 -128 -24 -34 -43 -66 -43 -73 0 -8 -4 -8 -16 2 -15 12 -62 39 -134 76 -19 10 -54 31 -77 46 -24 15 -47 27 -53 27 -6 0 -29 13 -52 30 -22 16 -49 30 -58 30 -9 0 -27 11 -39 24 l-22 23 21 39 c12 22 31 48 41 60 10 11 19 25 19 31 0 5 9 18 20 28 37 34 22 56 -50 77 -36 10 -77 18 -91 18 -15 0 -43 7 -64 16 -20 8 -40 13 -43 10 -3 -3 -10 -2 -16 3 -17 13 -114 34 -126 26 -5 -3 -10 -11 -10 -16 0 -28 -144 -178 -170 -179 -9 0 -20 -4 -25 -9 -15 -13 -134 -30 -184 -25 -49 5 -151 49 -164 70 -4 8 -13 14 -18 14 -12 0 -69 58 -69 69 0 4 -13 23 -30 41 -16 18 -30 36 -30 39 0 3 -4 12 -9 20 -8 12 -19 10 -68 -14 -32 -15 -68 -32 -81 -38 -31 -14 -184 -14 -214 0 -39 18 -92 40 -113 47 -18 5 -20 1 -21 -42 0 -36 -8 -58 -34 -97 -44 -65 -112 -126 -144 -129 -14 -2 -32 -9 -41 -16 -28 -24 -307 -15 -340 10 -5 5 -28 11 -50 15 -22 4 -102 27 -178 51 -76 24 -146 44 -157 44 -28 0 -26 31 5 92 14 27 25 56 25 64 0 8 4 22 9 32 17 32 39 87 56 140 19 57 24 62 75 77 27 8 37 18 48 50 45 126 62 176 77 230 10 33 24 70 32 81 7 12 15 35 17 51 3 17 15 55 28 84 13 30 37 95 53 145 31 95 33 97 70 58z"/>
 <path d="M4970 1444 c-25 -7 -55 -10 -67 -7 -12 3 -31 -2 -43 -10 -20 -14 -21 -25 -25 -202 -4 -179 -15 -247 -30 -179 -4 16 -10 38 -13 49 -3 11 -5 25 -4 31 1 6 -4 24 -12 39 -8 15 -12 33 -10 40 3 7 1 16 -5 20 -6 3 -11 19 -11 34 0 15 -6 36 -14 46 -12 16 -16 17 -29 6 -9 -7 -21 -10 -27 -6 -5 3 -16 3 -22 -1 -7 -5 -19 -9 -28 -11 -121 -22 -152 -38 -119 -58 6 -4 8 -14 5 -22 -3 -8 -3 -20 1 -26 4 -6 8 -23 9 -37 2 -15 21 -41 48 -67 25 -23 46 -44 46 -48 0 -3 15 -29 34 -57 19 -28 32 -56 30 -63 -3 -7 0 -16 5 -20 6 -3 9 -11 5 -16 -3 -5 -1 -15 4 -22 16 -20 12 -187 -5 -225 -20 -42 -21 -186 -2 -198 21 -13 6 -37 -31 -51 -22 -9 -39 -19 -37 -22 2 -3 9 -21 16 -39 10 -25 17 -31 32 -27 11 4 35 8 55 10 19 2 40 7 47 13 15 12 127 45 150 44 9 0 18 7 18 16 1 9 2 24 3 32 1 8 5 21 9 28 5 6 5 17 2 22 -4 6 -1 17 5 25 7 8 10 21 7 29 -8 20 37 246 49 249 5 1 14 -29 19 -68 6 -38 14 -76 18 -83 5 -6 5 -17 2 -22 -4 -6 -2 -16 3 -23 6 -7 13 -32 15 -57 9 -81 15 -90 53 -85 19 2 51 12 72 21 67 29 77 33 97 36 16 3 19 10 17 38 -2 19 -7 40 -12 45 -4 6 -11 31 -14 57 -4 26 -12 50 -17 54 -6 3 -8 12 -5 20 3 7 -1 25 -9 40 -7 15 -11 32 -9 39 3 7 1 16 -5 20 -6 3 -11 19 -11 35 0 16 -5 32 -10 35 -6 4 -8 11 -4 16 3 5 0 16 -6 24 -6 8 -9 19 -5 25 4 6 2 17 -5 25 -6 7 -12 24 -14 37 -1 13 -5 30 -9 38 -16 40 -36 123 -31 132 3 5 1 14 -4 21 -9 11 -53 162 -57 196 -1 9 -4 24 -8 34 -4 9 -9 23 -11 31 -5 16 -35 16 -96 0z"/>
 <path d="M585 1420 c-3 -5 -4 -14 0 -19 3 -5 1 -12 -5 -16 -5 -3 -10 -14 -10 -23 0 -9 -6 -28 -13 -42 -8 -14 -17 -41 -20 -59 -6 -30 -27 -83 -48 -123 -5 -10 -9 -27 -9 -37 0 -11 -4 -23 -10 -26 -5 -3 -10 -17 -10 -30 0 -13 -4 -27 -10 -30 -5 -3 -10 -14 -10 -23 0 -9 -7 -30 -16 -47 -8 -16 -17 -41 -19 -55 -4 -30 -27 -92 -52 -143 -19 -38 -19 -38 -38 -17 -10 11 -21 20 -24 20 -3 0 -16 -21 -27 -47 -32 -73 -37 -86 -40 -110 -2 -12 -10 -35 -18 -52 -16 -30 -16 -30 16 -45 18 -8 45 -17 60 -20 15 -3 40 -11 55 -18 15 -6 38 -13 51 -14 13 -2 29 -7 36 -13 6 -6 21 -10 31 -10 11 -1 63 -7 115 -14 181 -25 275 -6 343 69 32 36 37 48 37 92 0 51 -32 132 -51 132 -5 0 -9 6 -9 14 0 15 -35 55 -158 180 -42 43 -76 84 -74 90 2 6 5 26 8 45 2 19 8 39 12 45 5 6 9 22 10 35 0 13 8 39 17 57 9 19 18 50 21 71 2 20 9 42 15 50 15 17 -10 55 -51 79 -16 10 -30 22 -30 25 0 6 -56 39 -66 39 -2 0 -6 -4 -9 -10z m65 -652 c0 -5 18 -31 40 -57 55 -65 53 -76 -13 -76 -28 0 -58 4 -64 8 -7 5 -17 6 -22 3 -22 -14 -28 21 -14 84 23 100 20 96 48 70 14 -13 25 -28 25 -32z"/>
 <path d="M1071 1283 c-53 -27 -81 -51 -81 -70 0 -7 -4 -13 -10 -13 -11 0 -32 -37 -36 -65 -1 -11 -8 -46 -14 -78 -13 -68 -9 -124 14 -187 20 -53 80 -138 104 -147 9 -4 32 -19 50 -35 18 -15 39 -28 46 -28 7 0 26 -6 42 -14 37 -18 158 -18 192 0 15 8 32 14 38 14 32 0 114 66 114 91 0 8 7 25 17 38 28 41 24 209 -8 273 -5 10 -9 25 -9 33 0 9 -7 18 -15 21 -8 4 -15 10 -15 15 0 10 -119 129 -130 129 -4 0 -29 10 -56 22 -70 31 -182 31 -243 1z m297 -323 c37 -38 68 -132 53 -158 -10 -16 -10 -16 -11 2 0 27 -69 89 -89 81 -9 -4 -23 -8 -31 -9 -28 -5 -30 -53 -4 -92 14 -20 23 -38 21 -40 -6 -7 -97 40 -97 50 0 4 -11 21 -25 38 -30 36 -32 71 -5 105 54 69 135 79 188 23z"/>
 <path d="M4099 1275 c-8 -7 -79 -18 -113 -16 -16 0 -35 -4 -42 -10 -7 -6 -22 -8 -34 -4 -12 4 -27 2 -34 -4 -7 -6 -22 -10 -32 -10 -44 4 -55 -1 -49 -21 3 -11 3 -25 -2 -32 -4 -7 -9 -31 -10 -53 -2 -44 -10 -113 -17 -160 -2 -16 -5 -39 -6 -50 -1 -15 -3 -16 -7 -5 -3 8 -17 28 -29 43 -13 16 -24 35 -24 44 0 30 -25 5 -42 -42 -19 -54 -47 -90 -49 -65 -2 18 -3 24 -12 70 -10 44 -18 107 -19 143 -1 20 -7 29 -25 33 -33 9 -290 0 -300 -10 -4 -4 7 -20 24 -34 18 -15 39 -47 48 -70 15 -44 15 -44 -16 -87 -19 -26 -28 -48 -24 -56 5 -7 8 -28 7 -47 -1 -20 3 -41 9 -49 6 -7 8 -24 5 -37 -3 -14 -1 -28 5 -32 6 -3 8 -15 5 -27 -3 -11 -1 -27 4 -36 4 -9 10 -32 13 -51 14 -88 21 -157 18 -173 -1 -10 3 -25 9 -32 7 -8 10 -25 7 -37 -4 -13 -3 -28 1 -33 4 -6 66 -10 148 -10 141 0 142 0 153 25 6 14 18 38 27 53 l16 29 16 -23 c10 -13 27 -46 39 -74 l21 -50 89 4 c48 1 90 5 93 8 2 2 6 25 7 50 2 26 8 52 14 59 6 7 8 22 4 34 -4 12 -2 27 4 33 21 26 9 79 -26 114 -18 19 -33 41 -33 50 0 8 -10 32 -22 51 -44 71 -31 322 18 363 8 6 14 18 14 25 0 8 11 24 25 36 14 12 25 28 25 35 0 8 8 16 18 20 9 3 24 13 32 20 8 8 30 23 48 34 24 14 32 25 30 41 -3 21 -19 34 -29 23z"/>
 <path d="M2745 1157 c-133 -41 -174 -101 -170 -252 1 -49 5 -99 10 -110 4 -11 16 -40 26 -64 11 -24 19 -48 19 -53 0 -19 94 -98 147 -123 107 -51 318 -42 392 17 37 29 39 60 6 82 -14 9 -25 22 -25 29 0 7 -13 24 -30 37 -16 14 -29 30 -30 37 0 7 -13 22 -30 35 -16 12 -30 27 -30 34 0 6 -11 19 -25 28 -14 9 -25 22 -25 28 0 6 -15 24 -32 39 -26 22 -30 30 -19 38 15 9 70 -14 84 -36 4 -7 15 -13 22 -13 8 0 15 -5 15 -11 0 -7 11 -22 25 -35 l26 -24 29 22 c17 12 30 27 30 34 0 6 11 19 25 28 14 9 25 23 25 30 0 8 7 16 15 20 22 8 19 18 -16 62 -59 76 -186 121 -356 127 -43 2 -91 -1 -108 -6z m64 -291 c5 -13 17 -26 25 -29 9 -4 16 -13 16 -21 0 -8 21 -35 46 -60 25 -25 43 -50 39 -56 -8 -13 -72 -13 -80 0 -4 6 -14 9 -22 8 -24 -4 -74 86 -70 126 6 58 30 75 46 32z"/>
 <path d="M1807 1149 c-72 -10 -137 -32 -137 -47 0 -5 -9 -12 -20 -15 -19 -5 -27 -36 -13 -50 19 -20 24 -201 6 -240 -6 -12 -19 -41 -31 -64 -17 -36 -19 -48 -9 -80 6 -21 19 -47 29 -59 10 -11 18 -23 18 -27 0 -8 77 -87 85 -87 3 0 24 -12 47 -26 35 -22 54 -27 118 -28 70 -1 83 2 145 34 38 19 73 44 79 55 6 11 17 24 24 28 6 4 12 14 12 21 0 7 9 25 20 39 22 28 17 36 -30 42 -16 2 -55 15 -86 30 -53 25 -57 26 -75 9 -26 -23 -85 -24 -131 -2 -60 29 -86 100 -65 178 21 75 43 100 90 100 26 0 45 -6 54 -17 32 -40 63 -94 63 -108 0 -12 9 -13 48 -9 54 7 114 12 155 13 24 1 26 3 17 20 -5 11 -10 28 -10 38 0 10 -9 29 -20 43 -11 14 -20 33 -20 42 0 9 -8 23 -18 30 -10 7 -21 21 -25 31 -4 9 -15 20 -24 24 -10 4 -22 12 -26 20 -4 7 -14 13 -20 13 -7 0 -29 8 -49 19 -20 10 -52 21 -70 24 -18 3 -40 7 -48 10 -8 2 -46 0 -83 -4z"/>
 <path d="M4209 1146 c-3 -3 -19 -7 -35 -9 -16 -2 -37 -7 -48 -12 -22 -10 -106 -92 -106 -104 0 -5 -8 -26 -17 -47 -37 -85 -33 -215 10 -304 20 -41 112 -127 161 -149 24 -12 47 -25 50 -29 3 -5 24 -10 48 -12 145 -10 196 3 278 74 56 47 64 74 64 201 0 107 -5 136 -34 180 -15 22 -29 45 -31 50 -6 15 -122 121 -148 135 -12 6 -36 13 -54 16 -80 12 -132 16 -138 10z m185 -321 c20 -9 40 -23 43 -33 3 -9 12 -24 20 -33 12 -15 26 -99 16 -99 -3 0 -14 11 -24 25 -23 28 -78 42 -107 26 -26 -14 -24 -57 6 -99 27 -37 12 -44 -29 -14 -13 9 -33 22 -43 28 -11 5 -28 33 -39 62 -18 48 -18 54 -4 84 16 33 66 65 103 67 12 1 38 -6 58 -14z"/>
 <path d="M1871 887 c-6 -8 -13 -35 -15 -62 -4 -40 -1 -51 19 -71 28 -28 55 -31 55 -6 0 10 4 22 10 28 14 14 -8 79 -35 104 -18 17 -24 18 -34 7z"/>
 <path d="M2194 816 c-10 -31 -11 -146 0 -147 6 -1 28 -3 50 -5 21 -2 43 -8 50 -13 6 -6 43 -15 81 -21 38 -6 74 -15 80 -20 6 -5 20 -9 30 -8 11 0 37 -3 58 -7 36 -7 38 -6 29 11 -39 77 -72 151 -72 161 0 15 -50 29 -135 36 -11 1 -26 6 -32 10 -7 5 -17 5 -23 2 -5 -3 -16 -3 -22 2 -19 12 -89 11 -94 -1z"/>
 <path d="M3196 811 c-18 -20 -16 -51 4 -51 5 0 10 -7 10 -15 0 -8 7 -15 15 -15 12 0 14 8 9 43 -8 54 -16 62 -38 38z"/>
 <path d="M2085 761 c-7 -12 12 -24 25 -16 11 7 4 25 -10 25 -5 0 -11 -4 -15 -9z"/>
 <path d="M2694 368 c-15 -24 -31 -49 -36 -55 -7 -9 -5 -15 8 -19 11 -4 28 -15 39 -25 20 -17 70 -44 172 -93 28 -14 54 -30 58 -35 10 -17 32 -13 39 6 10 29 59 108 89 142 30 35 34 50 15 52 -7 1 -29 3 -48 5 -20 2 -56 8 -80 14 -59 15 -91 21 -115 23 -11 1 -25 5 -32 10 -6 4 -18 4 -26 1 -8 -3 -18 -1 -22 5 -13 22 -35 10 -61 -31z"/>
 </g>
<g id="layer103" fill="#195dac" stroke="none">
 <path d="M0 1050 l0 -1050 2710 0 2710 0 0 1050 0 1050 -2710 0 -2710 0 0 -1050z m628 475 c9 -5 21 -15 27 -20 5 -6 37 -29 70 -50 33 -22 67 -47 76 -55 8 -8 23 -19 32 -25 14 -9 15 -16 2 -70 -16 -66 -52 -187 -66 -224 -6 -13 -8 -26 -5 -28 3 -3 1 -15 -4 -28 -7 -19 -2 -29 30 -60 45 -44 49 -40 48 45 0 63 6 107 15 117 4 3 7 15 7 25 0 43 78 144 147 190 87 58 209 70 320 33 61 -21 95 -39 117 -64 11 -12 25 -21 32 -21 11 0 53 -44 113 -120 17 -21 22 -23 38 -12 40 28 110 55 169 65 115 20 282 -34 364 -117 43 -43 79 -95 101 -146 35 -80 36 -81 144 -95 22 -2 49 -6 60 -7 18 -3 20 3 21 79 1 69 6 91 33 147 20 41 47 77 71 96 53 42 155 70 255 72 78 1 208 -16 229 -30 28 -18 81 -31 87 -21 7 12 458 4 470 -8 4 -4 9 -25 11 -46 3 -48 12 -54 27 -19 12 25 14 26 26 9 18 -25 22 -14 30 73 4 41 8 76 9 77 1 1 26 5 56 8 30 4 77 11 105 16 58 12 166 29 210 33 17 2 47 6 68 11 l38 7 -6 -43 c-4 -24 -8 -53 -10 -64 -4 -19 1 -21 58 -22 67 -1 107 -6 122 -15 6 -3 23 -8 38 -12 l28 -7 -7 47 c-12 80 -13 78 36 86 25 5 52 9 60 9 8 0 38 7 65 14 28 7 78 19 113 26 l62 13 0 42 c0 33 4 44 19 49 32 10 228 42 291 48 29 3 53 -11 44 -25 -3 -5 -1 -14 4 -21 5 -7 12 -25 15 -42 3 -16 11 -48 17 -70 6 -22 11 -48 11 -57 0 -10 5 -20 10 -23 5 -4 7 -11 3 -16 -3 -5 -1 -15 4 -22 5 -7 17 -48 27 -92 9 -44 20 -89 25 -100 5 -11 11 -31 13 -45 3 -14 15 -61 27 -105 12 -44 28 -105 36 -135 8 -30 19 -69 24 -86 6 -17 10 -42 10 -57 0 -14 5 -29 10 -32 6 -3 10 -17 10 -31 0 -14 4 -33 9 -42 4 -9 11 -33 15 -53 l6 -35 -62 -22 c-35 -12 -70 -22 -78 -22 -8 -1 -33 -9 -55 -20 -22 -11 -47 -20 -55 -20 -8 0 -28 -7 -44 -15 -56 -29 -83 -18 -77 32 1 6 -3 14 -8 17 -12 8 -23 -22 -16 -44 7 -21 -9 -34 -60 -49 -22 -7 -47 -15 -55 -18 -8 -3 -22 -7 -30 -8 -8 -1 -35 -8 -60 -17 -172 -59 -201 -61 -211 -11 -3 18 -14 49 -24 69 -9 20 -18 51 -19 68 -1 26 4 32 34 42 36 12 48 28 30 39 -6 4 -28 -5 -48 -18 -46 -32 -85 -47 -122 -47 -16 0 -31 -4 -34 -9 -9 -15 -145 -4 -191 14 -21 9 -126 56 -136 62 -8 5 -38 -149 -42 -220 -2 -27 -3 -28 -72 -31 -38 -2 -104 -7 -146 -11 l-77 -8 -12 37 c-12 37 -25 46 -33 24 -3 -10 -49 -12 -192 -11 -103 1 -189 4 -191 6 -2 2 -6 19 -8 38 -16 114 -34 220 -38 225 -5 5 -43 -9 -68 -26 -8 -5 -40 -21 -70 -34 -54 -24 -55 -24 -25 -31 17 -4 43 -11 59 -16 16 -5 39 -9 52 -9 21 0 19 -6 -32 -79 -29 -44 -54 -82 -54 -85 0 -3 -16 -29 -35 -56 -19 -27 -35 -53 -35 -58 0 -4 -13 -23 -28 -42 -16 -19 -32 -43 -35 -54 -7 -17 -9 -17 -25 -4 -9 8 -33 23 -52 32 -19 10 -57 31 -85 47 -27 16 -72 40 -100 54 -68 35 -199 105 -204 111 -2 2 3 12 12 22 10 10 17 22 17 27 0 4 11 23 25 41 14 18 25 37 25 42 0 5 7 16 16 23 21 17 37 60 27 70 -5 5 -22 10 -39 12 -16 2 -35 7 -42 11 -7 4 -16 5 -21 1 -5 -3 -12 -1 -16 5 -3 5 -18 10 -32 10 -27 0 -47 5 -140 35 -29 9 -57 14 -62 11 -5 -4 -12 -2 -16 4 -11 17 -35 11 -45 -13 -6 -12 -16 -31 -22 -41 -21 -32 -130 -136 -143 -136 -7 0 -27 -7 -45 -16 -22 -12 -60 -17 -119 -18 -77 0 -93 3 -155 33 -76 36 -150 106 -195 182 l-26 46 -55 -24 c-30 -14 -63 -29 -74 -35 -10 -5 -55 -11 -100 -12 -82 -3 -131 8 -218 47 -21 9 -39 17 -40 17 -2 0 -3 -21 -4 -48 0 -34 -9 -60 -32 -97 -36 -59 -125 -135 -156 -135 -12 0 -27 -5 -33 -11 -21 -21 -285 -14 -343 9 -8 3 -22 7 -30 8 -8 1 -80 22 -160 48 -80 25 -164 50 -186 56 l-42 10 27 53 c15 28 33 72 40 96 7 24 23 67 36 95 12 28 28 68 34 88 14 43 25 53 71 65 32 8 36 14 55 74 11 35 23 69 26 74 4 6 19 50 34 99 15 49 34 101 41 115 8 14 14 33 14 42 0 16 17 63 46 126 8 17 14 38 14 47 0 14 19 65 41 108 5 10 9 25 9 34 0 12 6 11 31 -8 17 -13 38 -27 47 -33z"/>
 <path d="M4975 1444 c-38 -7 -85 -16 -102 -19 l-33 -6 0 -68 c0 -137 -13 -372 -20 -359 -4 7 -24 78 -45 158 -20 80 -40 148 -43 152 -6 6 -211 -29 -220 -38 -2 -1 3 -32 11 -69 13 -56 23 -74 67 -121 28 -29 65 -84 82 -121 27 -57 32 -80 36 -169 4 -88 1 -114 -17 -172 -22 -66 -22 -71 -7 -129 21 -81 21 -82 -19 -99 -19 -8 -35 -18 -35 -23 0 -25 24 -72 35 -68 6 3 63 19 125 37 62 17 121 35 130 40 11 6 20 28 25 57 11 74 65 356 69 361 4 4 15 -42 41 -178 9 -47 21 -109 26 -138 7 -33 15 -52 22 -49 7 2 56 19 111 37 l98 32 -6 32 c-17 90 -244 930 -252 932 -5 1 -40 -4 -79 -12z"/>
 <path d="M591 1408 c-5 -13 -32 -91 -61 -173 -28 -83 -62 -179 -75 -215 -13 -36 -42 -120 -65 -187 -24 -68 -45 -123 -48 -123 -3 0 -16 10 -29 22 -13 12 -25 19 -28 16 -4 -4 -80 -204 -88 -231 -3 -11 89 -43 243 -83 114 -30 151 -36 240 -36 114 1 154 12 209 58 107 90 70 200 -142 421 l-99 102 47 168 c31 107 44 172 39 181 -5 7 -37 34 -72 58 l-62 45 -9 -23z m120 -713 c33 -53 27 -65 -37 -65 -31 0 -71 7 -89 16 l-33 15 20 67 c10 37 22 74 24 82 4 11 18 1 51 -35 25 -27 54 -63 64 -80z"/>
 <path d="M1143 1299 c-136 -26 -214 -134 -217 -299 -1 -111 23 -171 97 -244 123 -120 262 -153 394 -92 73 33 95 55 124 120 30 68 29 188 -1 269 -40 108 -175 226 -275 242 -22 3 -49 8 -60 9 -11 2 -39 0 -62 -5z m219 -326 c42 -37 78 -142 59 -172 -7 -11 -10 -9 -15 7 -9 27 -62 72 -86 72 -48 0 -64 -59 -29 -104 29 -37 18 -42 -34 -17 -83 40 -120 129 -76 185 44 56 135 71 181 29z"/>
 <path d="M3943 1246 c-72 -11 -134 -23 -136 -26 -3 -3 -15 -74 -26 -159 -11 -84 -22 -156 -25 -158 -2 -2 -17 18 -33 46 -15 28 -31 51 -34 51 -3 0 -20 -31 -39 -70 -18 -38 -35 -69 -36 -67 -2 1 -12 59 -24 127 -12 69 -25 128 -29 133 -4 4 -74 6 -156 5 l-148 -3 27 -32 c14 -17 33 -50 41 -74 15 -41 14 -43 -11 -76 l-27 -35 23 -151 c12 -84 24 -170 27 -192 3 -22 13 -85 22 -140 l17 -100 139 0 140 0 31 58 30 58 37 -81 36 -81 88 3 88 3 7 40 c5 22 14 77 21 123 l13 84 -29 36 c-57 70 -81 138 -85 240 -8 164 53 308 155 372 65 40 73 48 73 70 0 24 -2 24 -177 -4z"/>
 <path d="M2785 1160 c-125 -19 -184 -74 -206 -194 -18 -98 24 -260 84 -325 112 -120 320 -157 471 -82 36 18 66 38 66 45 0 7 -65 90 -145 185 -80 94 -145 174 -145 177 0 4 15 4 32 0 43 -9 101 -50 130 -92 13 -19 27 -33 31 -31 16 5 127 143 127 158 0 16 -49 65 -90 91 -43 26 -150 58 -224 68 -39 5 -73 9 -76 8 -3 0 -27 -4 -55 -8z m78 -355 c43 -52 75 -100 71 -106 -4 -7 -26 -9 -57 -6 -41 3 -56 11 -78 35 -16 17 -31 47 -35 67 -7 38 2 105 14 105 4 0 43 -43 85 -95z"/>
 <path d="M1738 1131 c-25 -10 -60 -28 -77 -40 -27 -20 -29 -24 -19 -49 6 -15 11 -72 11 -127 1 -87 -3 -109 -26 -166 -15 -36 -27 -72 -27 -80 0 -29 60 -117 110 -162 66 -60 130 -81 224 -75 39 3 86 12 104 22 43 22 109 90 132 136 l18 36 -93 33 c-88 31 -95 32 -117 17 -48 -34 -143 -3 -175 57 -32 60 -12 188 35 223 46 36 125 -8 156 -87 l17 -42 102 8 c56 4 104 8 106 10 8 9 -30 99 -64 149 -45 69 -90 103 -174 132 -82 29 -176 31 -243 5z"/>
 <path d="M4162 1132 c-106 -38 -172 -138 -180 -271 -2 -42 1 -95 7 -118 26 -95 138 -210 243 -248 110 -39 253 -11 322 65 62 69 82 186 51 304 -50 190 -276 327 -443 268z m261 -325 c35 -32 57 -87 57 -139 0 -36 -10 -35 -35 5 -24 37 -68 56 -93 41 -25 -16 -26 -60 -3 -99 24 -41 13 -44 -44 -12 -70 40 -105 121 -75 178 15 27 79 58 122 59 28 0 45 -8 71 -33z"/>
 <path d="M1870 875 c-6 -7 -10 -37 -8 -66 3 -46 7 -55 30 -68 15 -9 29 -13 32 -11 2 3 7 25 9 48 8 65 -35 131 -63 97z"/>
 <path d="M2196 823 c-3 -3 -6 -37 -6 -74 l0 -68 43 -11 c23 -6 49 -13 57 -16 19 -7 272 -64 282 -64 4 0 -4 19 -17 43 -14 23 -32 65 -41 92 -9 28 -17 51 -18 52 -1 1 -58 11 -126 22 -69 12 -134 23 -146 26 -12 3 -24 2 -28 -2z"/>
 <path d="M3195 806 c-17 -25 -16 -27 6 -51 34 -35 40 -31 33 18 -9 56 -19 65 -39 33z"/>
 <path d="M2090 750 c0 -5 5 -10 10 -10 6 0 10 5 10 10 0 6 -4 10 -10 10 -5 0 -10 -4 -10 -10z"/>
 <path d="M2692 353 c-29 -44 -30 -49 -14 -61 20 -15 269 -152 277 -152 11 0 125 184 118 191 -5 3 -62 16 -128 28 -66 13 -142 27 -168 32 -26 5 -49 9 -51 9 -1 0 -17 -21 -34 -47z"/>
 </g>
<g id="layer104" fill="#2e6cb0" stroke="none">
 <path d="M0 1050 l0 -1050 2710 0 2710 0 0 1050 0 1050 -2710 0 -2710 0 0 -1050z m4775 993 c13 -12 16 -27 12 -56 -4 -27 -1 -45 8 -54 12 -12 30 -63 85 -247 15 -51 16 -62 4 -86 -26 -51 -104 -46 -133 8 -5 10 -15 48 -21 85 -7 37 -16 67 -22 67 -11 0 -1 -79 18 -134 15 -40 13 -48 -18 -82 -18 -21 -51 -24 -94 -10 -17 5 -23 2 -27 -14 -4 -17 -13 -20 -56 -20 -70 0 -91 25 -106 125 -1 6 -3 14 -3 19 -1 5 -13 -1 -27 -14 -46 -43 -198 -26 -207 23 -6 36 2 67 18 67 23 0 16 19 -15 34 -43 23 -63 60 -59 113 3 42 6 47 33 55 17 5 40 14 52 20 17 8 26 8 38 -2 12 -10 20 -9 42 6 29 19 69 20 92 1 10 -9 18 -5 33 16 17 23 27 27 68 27 32 0 61 7 85 21 22 13 44 19 58 15 16 -4 28 1 40 14 21 25 79 27 102 3z m-3819 -32 c15 -12 31 -21 37 -21 6 0 23 -15 39 -32 l28 -33 30 34 c26 31 33 34 56 25 21 -7 49 -36 49 -51 0 -1 29 2 63 6 l64 8 48 -44 c26 -23 51 -54 54 -68 9 -36 24 -31 32 10 6 33 46 75 72 75 6 0 27 -15 47 -34 29 -28 34 -38 27 -53 -15 -30 -23 -73 -13 -73 5 0 17 24 25 54 9 30 23 57 32 60 28 11 72 6 88 -9 11 -12 21 -13 41 -5 29 11 69 4 99 -16 11 -8 30 -11 43 -8 44 11 88 -4 99 -34 18 -47 7 -133 -26 -200 -16 -34 -30 -66 -30 -70 0 -12 -53 -32 -87 -32 -34 0 -78 16 -104 37 -30 25 -62 7 -79 -44 -12 -36 -22 -48 -42 -54 -34 -9 -67 8 -94 48 l-21 32 -29 -30 c-35 -36 -54 -37 -93 0 -31 29 -37 66 -17 100 11 17 -13 33 -39 25 -11 -3 -46 -8 -78 -11 -50 -5 -61 -3 -82 17 -13 12 -29 35 -35 51 -14 32 -20 35 -37 18 -9 -9 -29 -3 -78 20 -37 17 -72 31 -78 31 -6 0 -23 12 -38 26 -23 22 -26 30 -18 57 5 17 13 35 18 40 8 8 -28 57 -42 57 -4 0 -12 -18 -18 -40 -10 -31 -9 -52 0 -98 21 -92 30 -110 61 -117 35 -8 43 -36 24 -85 -21 -51 -51 -64 -103 -42 -23 9 -41 22 -41 28 0 6 -9 23 -21 38 -12 15 -28 53 -36 84 -7 31 -17 64 -20 72 -3 8 -7 20 -8 25 0 6 -4 26 -9 46 -11 51 18 135 63 178 33 32 38 33 93 28 37 -3 67 -12 84 -26z m3017 -173 c20 -28 26 -60 28 -163 2 -76 -2 -88 -34 -119 -33 -31 -69 -38 -109 -21 -10 4 -32 2 -50 -5 -18 -7 -77 -14 -130 -15 -90 -4 -99 -2 -109 16 -10 19 -11 19 -45 -10 -19 -17 -47 -34 -62 -37 -15 -4 -33 -11 -40 -17 -9 -7 -18 -5 -30 7 -10 9 -23 16 -28 16 -10 0 -45 75 -49 103 -1 11 -6 22 -12 25 -26 18 -31 46 -14 72 10 14 21 38 25 53 4 16 18 40 32 54 23 22 31 25 72 19 25 -3 55 -15 66 -25 27 -24 66 -44 73 -37 3 3 6 18 8 34 1 16 5 34 8 39 11 18 85 27 102 13 12 -10 22 -9 50 4 30 15 41 15 70 5 19 -7 35 -20 36 -29 0 -10 4 -8 11 7 13 27 63 52 90 45 11 -2 29 -18 41 -34z m-1646 -24 c14 -4 24 -17 28 -36 l7 -30 33 32 c39 37 65 36 120 -6 17 -13 36 -24 40 -24 5 0 17 -7 26 -16 17 -16 19 -15 28 8 11 29 44 53 88 61 35 7 91 -12 132 -44 26 -21 41 -17 41 11 0 13 12 25 35 34 45 19 74 7 100 -39 16 -30 16 -41 6 -91 -15 -77 -14 -94 7 -101 40 -15 43 -63 6 -92 -14 -11 -23 -25 -19 -31 11 -17 -16 -65 -47 -83 -27 -15 -31 -15 -63 0 -33 16 -35 20 -35 65 0 37 -4 50 -20 58 -17 9 -24 6 -46 -20 -41 -48 -96 -38 -165 31 -32 32 -43 38 -50 28 -5 -8 -9 -20 -9 -26 0 -7 -6 -13 -14 -13 -7 0 -25 -9 -38 -20 -14 -10 -28 -17 -31 -14 -3 3 -15 1 -26 -6 -22 -12 -46 -4 -75 26 -21 20 -56 9 -56 -17 0 -23 -18 -61 -34 -71 -6 -4 -28 -8 -48 -8 -29 0 -41 6 -57 29 -24 33 -26 52 -9 69 9 9 7 17 -10 35 -29 30 -28 55 3 87 17 18 27 41 30 71 13 137 38 165 122 143z m-1699 -289 c9 -5 21 -15 27 -20 5 -6 37 -29 70 -50 33 -22 67 -47 76 -55 8 -8 23 -19 32 -25 14 -9 15 -16 2 -70 -16 -66 -52 -187 -66 -224 -6 -13 -8 -26 -5 -28 3 -3 1 -15 -4 -28 -7 -19 -2 -29 30 -60 45 -44 49 -40 48 45 0 63 6 107 15 117 4 3 7 15 7 25 0 43 78 144 147 190 87 58 209 70 320 33 61 -21 95 -39 117 -64 11 -12 25 -21 32 -21 11 0 53 -44 113 -120 17 -21 22 -23 38 -12 40 28 110 55 169 65 115 20 282 -34 364 -117 43 -43 79 -95 101 -146 35 -80 36 -81 144 -95 22 -2 49 -6 60 -7 18 -3 20 3 21 79 1 69 6 91 33 147 20 41 47 77 71 96 53 42 155 70 255 72 78 1 208 -16 229 -30 29 -18 81 -31 87 -21 8 13 457 5 470 -8 4 -4 9 -25 11 -46 3 -48 12 -54 27 -19 12 25 14 26 26 9 18 -25 22 -14 30 73 4 41 8 76 9 77 1 1 26 5 56 8 30 4 77 11 105 16 58 12 166 29 210 33 17 2 47 6 68 11 l38 7 -6 -43 c-4 -24 -8 -53 -10 -64 -4 -19 1 -21 58 -22 67 -1 107 -6 122 -15 6 -3 23 -8 38 -12 l28 -7 -7 47 c-12 80 -13 78 36 86 25 5 52 9 60 9 8 0 38 7 65 14 28 7 78 19 113 26 l62 13 0 42 c0 33 4 44 19 49 32 10 228 42 291 48 29 3 53 -11 44 -25 -3 -5 -1 -14 4 -21 5 -7 12 -25 15 -42 3 -16 11 -48 17 -70 6 -22 11 -48 11 -57 0 -10 5 -20 10 -23 5 -4 7 -11 3 -16 -3 -5 -1 -15 4 -22 5 -7 17 -48 27 -92 9 -44 20 -89 25 -100 5 -11 11 -31 13 -45 3 -14 15 -61 27 -105 12 -44 28 -105 36 -135 8 -30 19 -69 24 -86 6 -17 10 -42 10 -57 0 -14 5 -29 10 -32 6 -3 10 -17 10 -31 0 -14 4 -33 9 -42 4 -9 11 -33 15 -53 l6 -35 -62 -22 c-35 -12 -70 -22 -78 -22 -8 -1 -33 -9 -55 -20 -22 -11 -47 -20 -55 -20 -8 0 -28 -7 -44 -15 -56 -29 -83 -18 -77 32 1 6 -3 14 -8 17 -12 8 -23 -22 -16 -44 7 -21 -9 -34 -60 -49 -22 -7 -47 -15 -55 -18 -8 -3 -22 -7 -30 -8 -8 -1 -35 -8 -60 -17 -172 -59 -201 -61 -211 -11 -3 18 -14 49 -24 69 -9 20 -18 51 -19 68 -1 26 4 32 34 42 36 12 48 28 30 39 -6 4 -28 -5 -48 -18 -46 -32 -85 -47 -122 -47 -16 0 -31 -4 -34 -9 -9 -15 -145 -4 -191 14 -21 9 -126 56 -136 62 -8 5 -38 -149 -42 -220 -2 -27 -3 -28 -72 -31 -38 -2 -104 -7 -146 -11 l-77 -8 -12 37 c-12 37 -25 46 -33 24 -3 -10 -49 -12 -192 -11 -103 1 -189 4 -191 6 -2 2 -6 19 -8 38 -16 114 -34 220 -38 225 -5 5 -43 -9 -68 -26 -8 -5 -40 -21 -70 -34 -54 -24 -55 -24 -25 -31 17 -4 43 -11 59 -16 16 -5 39 -9 52 -9 21 0 19 -6 -32 -79 -29 -44 -54 -82 -54 -85 0 -3 -16 -29 -35 -56 -19 -27 -35 -53 -35 -58 0 -4 -13 -23 -28 -42 -16 -19 -32 -43 -35 -54 -7 -17 -9 -17 -25 -4 -9 8 -33 23 -52 32 -19 10 -57 31 -85 47 -27 16 -72 40 -100 54 -68 35 -199 105 -204 111 -2 2 3 12 12 22 10 10 17 22 17 27 0 4 11 23 25 41 14 18 25 37 25 42 0 5 7 16 16 23 21 17 37 60 27 70 -5 5 -22 10 -39 12 -16 2 -35 7 -42 11 -7 4 -16 5 -21 1 -5 -3 -12 -1 -16 5 -3 5 -18 10 -32 10 -27 0 -47 5 -140 35 -29 9 -57 14 -62 11 -5 -4 -12 -2 -16 4 -11 17 -35 11 -45 -13 -6 -12 -16 -31 -22 -41 -21 -32 -130 -136 -143 -136 -7 0 -27 -7 -45 -16 -22 -12 -60 -17 -119 -18 -77 0 -93 3 -155 33 -76 36 -150 106 -195 182 l-26 46 -55 -24 c-30 -14 -63 -29 -74 -35 -10 -5 -55 -11 -100 -12 -82 -3 -131 8 -218 47 -21 9 -39 17 -40 17 -2 0 -3 -21 -4 -48 0 -34 -9 -60 -32 -97 -36 -59 -125 -135 -156 -135 -12 0 -27 -5 -33 -11 -21 -21 -285 -14 -343 9 -8 3 -22 7 -30 8 -8 1 -80 22 -160 48 -80 25 -164 50 -186 56 l-42 10 27 53 c15 28 33 72 40 96 7 24 23 67 36 95 12 28 28 68 34 88 14 43 25 53 71 65 32 8 36 14 55 74 11 35 23 69 26 74 4 6 19 50 34 99 15 49 34 101 41 115 8 14 14 33 14 42 0 16 17 63 46 126 8 17 14 38 14 47 0 14 19 65 41 108 5 10 9 25 9 34 0 12 6 11 31 -8 17 -13 38 -27 47 -33z m2722 -81 c5 -13 13 -24 18 -24 4 0 12 -13 18 -28 39 -103 -117 -105 -168 -3 -23 46 -18 59 35 91 26 16 31 16 58 3 17 -8 34 -26 39 -39z"/>
 <path d="M4700 2030 c-19 -12 -23 -55 -6 -70 9 -7 22 -7 40 0 20 7 26 16 26 39 0 37 -28 51 -60 31z"/>
 <path d="M4590 1987 c-27 -14 -39 -59 -21 -81 6 -8 9 -21 5 -30 -3 -9 -3 -24 2 -33 4 -10 9 -43 10 -73 2 -30 5 -73 8 -95 2 -22 4 -50 5 -62 1 -34 37 -65 64 -57 43 13 49 26 31 75 -21 58 -24 79 -25 169 0 41 -5 80 -11 87 -6 7 -8 31 -5 52 7 57 -14 73 -63 48z"/>
 <path d="M4458 1960 c-13 -8 -16 -25 -16 -82 0 -40 3 -77 6 -83 4 -5 8 -41 9 -80 4 -155 16 -191 62 -193 43 -1 57 20 42 67 -6 21 -11 61 -11 88 0 27 -3 53 -7 57 -4 4 -9 42 -11 84 -6 132 -7 137 -17 144 -14 10 -37 9 -57 -2z"/>
 <path d="M4315 1916 c-12 -8 -42 -13 -74 -12 -41 2 -59 -2 -73 -16 -23 -23 -23 -28 5 -69 22 -32 44 -47 130 -83 33 -14 37 -19 26 -32 -9 -11 -27 -14 -63 -12 -46 3 -51 1 -54 -18 -4 -26 39 -44 104 -44 41 0 81 23 85 48 19 107 6 212 -29 240 -20 16 -33 15 -57 -2z m5 -108 c0 -14 -27 -9 -50 10 -35 29 -16 47 21 20 16 -12 29 -25 29 -30z"/>
 <path d="M4725 1916 c-18 -13 -19 -18 -7 -58 8 -23 17 -65 22 -93 22 -134 48 -183 88 -171 40 13 34 73 -21 245 -29 89 -46 104 -82 77z"/>
 <path d="M820 2003 c-8 -3 -26 -17 -40 -31 -24 -23 -25 -30 -24 -127 1 -98 3 -106 42 -186 54 -112 106 -138 131 -67 13 36 7 48 -22 48 -53 0 -99 243 -56 289 11 12 23 21 27 21 16 -1 54 -28 97 -69 46 -44 53 -61 17 -42 -30 16 -52 3 -52 -29 0 -23 7 -30 43 -44 23 -9 46 -16 51 -16 4 0 19 -9 33 -20 14 -11 31 -20 38 -20 11 0 24 36 32 95 8 52 10 61 21 82 24 44 6 82 -32 67 -16 -6 -36 -47 -36 -77 -1 -20 -3 -20 -30 11 -16 17 -33 32 -37 32 -5 0 -14 9 -21 20 -26 42 -136 80 -182 63z"/>
 <path d="M1219 1905 c-44 -24 -64 -99 -48 -176 16 -73 44 -99 109 -99 44 0 55 4 85 34 39 40 50 71 42 127 -6 42 -47 99 -85 118 -31 15 -71 13 -103 -4z m99 -97 c7 -36 5 -49 -13 -77 -25 -41 -45 -51 -45 -22 0 11 -4 23 -10 26 -16 10 -12 47 10 83 27 45 47 41 58 -10z"/>
 <path d="M1280 1800 c0 -7 3 -10 7 -7 3 4 3 10 0 14 -4 3 -7 0 -7 -7z"/>
 <path d="M1492 1868 c-7 -7 -12 -26 -12 -42 0 -17 -7 -50 -15 -74 -9 -24 -13 -47 -10 -52 7 -11 -26 -29 -42 -23 -24 9 -27 -29 -5 -46 19 -14 20 -20 11 -60 -8 -35 -7 -47 4 -59 22 -21 77 -7 79 21 0 12 2 27 3 32 2 6 3 15 4 21 1 11 76 12 86 2 3 -3 0 -19 -6 -37 -16 -44 0 -78 36 -78 29 0 45 22 48 67 2 25 6 30 30 30 22 0 27 4 27 25 0 15 -6 25 -14 25 -16 0 -28 34 -16 47 4 4 13 43 19 87 12 87 6 106 -35 106 -25 0 -35 -11 -41 -44 -1 -12 -6 -34 -9 -51 -3 -16 -7 -39 -9 -50 -7 -44 -18 -64 -33 -64 -71 -4 -78 -2 -64 26 6 10 18 53 27 96 13 61 14 81 5 92 -15 18 -52 19 -68 3z"/>
 <path d="M1776 1815 c-20 -20 -20 -22 -1 -76 17 -48 58 -96 93 -110 12 -5 22 -13 22 -19 0 -19 -28 -22 -60 -5 -38 19 -74 16 -78 -7 -4 -20 90 -78 126 -78 58 0 109 108 108 225 -1 56 -3 60 -25 63 -15 3 -30 -3 -37 -13 -11 -15 -14 -15 -33 4 -12 12 -29 21 -38 21 -10 0 -27 3 -39 6 -13 3 -28 -1 -38 -11z m124 -123 c0 -24 0 -25 -20 -7 -24 22 -50 71 -42 80 11 11 62 -49 62 -73z"/>
 <path d="M1575 1739 c-4 -6 -4 -13 -1 -16 3 -3 1 -12 -6 -20 -6 -7 -8 -17 -4 -21 10 -9 36 27 36 50 0 20 -15 24 -25 7z"/>
 <path d="M1732 1674 c1 -33 3 -35 27 -29 35 9 36 10 14 39 -26 37 -43 33 -41 -10z"/>
 <path d="M1535 1549 c-4 -6 -5 -13 -2 -16 7 -7 27 6 27 18 0 12 -17 12 -25 -2z"/>
 <path d="M3874 1822 c-8 -8 -12 -22 -9 -31 7 -18 10 -29 20 -113 7 -55 7 -58 -14 -58 -12 0 -31 5 -42 11 -17 9 -19 17 -13 59 4 33 3 55 -6 64 -6 8 -9 24 -5 35 8 28 -28 47 -61 32 -17 -8 -24 -19 -24 -40 0 -16 5 -33 11 -36 6 -4 8 -14 5 -22 -4 -9 -1 -31 6 -49 10 -29 9 -36 -7 -54 -16 -18 -21 -19 -33 -7 -15 16 -32 131 -25 170 4 21 1 27 -20 32 -14 4 -35 2 -46 -5 -20 -10 -21 -17 -16 -68 3 -31 2 -82 -4 -112 -5 -34 -5 -62 0 -72 12 -23 65 -24 77 -2 9 16 12 16 42 0 42 -20 52 -20 81 3 16 12 30 16 44 10 40 -15 101 -10 120 11 15 17 17 32 11 126 -4 59 -11 113 -16 120 -14 16 -58 14 -76 -4z"/>
 <path d="M3367 1783 c-8 -10 -18 -35 -22 -55 -4 -20 -13 -39 -21 -42 -20 -8 -17 -47 4 -52 12 -4 18 -17 20 -42 1 -20 11 -48 21 -62 15 -20 26 -25 59 -23 47 2 88 26 98 55 12 39 -4 63 -61 91 -52 25 -68 48 -44 63 6 3 30 -8 54 -25 48 -35 67 -38 85 -16 17 20 5 33 -80 83 -78 47 -90 50 -113 25z m78 -192 c3 -5 1 -12 -4 -15 -5 -3 -11 1 -15 9 -6 16 9 21 19 6z"/>
 <path d="M3845 1681 c-3 -5 -1 -12 5 -16 5 -3 10 1 10 9 0 18 -6 21 -15 7z"/>
 <path d="M2266 1781 c-16 -17 -26 -73 -30 -161 -1 -30 -5 -35 -28 -38 -22 -3 -28 -9 -28 -27 0 -14 7 -26 18 -29 14 -5 17 -15 15 -58 -2 -34 1 -54 9 -60 38 -23 83 8 73 52 -6 29 6 45 40 52 12 2 20 11 20 23 0 12 -8 21 -20 23 -21 3 -24 33 -11 162 7 75 -20 103 -58 61z"/>
 <path d="M2418 1770 c-9 -6 -22 -27 -29 -48 -6 -20 -18 -41 -25 -45 -19 -11 -18 -46 1 -53 9 -4 15 -19 15 -40 0 -19 6 -50 14 -68 12 -29 18 -33 47 -31 19 1 52 10 74 21 33 15 41 25 43 51 3 29 -2 35 -53 67 -48 31 -54 39 -45 55 12 23 46 18 53 -9 9 -33 97 -61 97 -30 0 18 -13 40 -24 40 -6 0 -17 9 -23 19 -15 24 -97 81 -115 81 -7 0 -21 -5 -30 -10z m56 -211 c-6 -11 -24 -2 -24 11 0 5 7 7 15 4 8 -4 12 -10 9 -15z"/>
 <path d="M2898 1757 c-7 -13 -8 -51 -4 -109 l7 -88 -25 0 c-14 0 -27 -4 -30 -9 -10 -15 5 -41 23 -41 14 0 17 -10 16 -57 l0 -58 40 0 c36 0 40 3 41 25 1 40 15 69 35 75 26 9 25 52 -1 60 -20 6 -22 19 -24 185 -1 32 -3 34 -34 36 -24 1 -36 -4 -44 -19z"/>
 <path d="M2659 1756 c-32 -15 -36 -67 -8 -91 26 -25 74 -10 74 23 0 23 2 24 35 15 24 -6 26 -26 4 -47 -10 -11 -34 -16 -73 -16 -31 0 -65 -6 -74 -13 -16 -11 -16 -16 -4 -52 15 -43 84 -105 116 -105 25 0 73 47 69 68 -4 20 -62 29 -82 13 -10 -8 -16 -8 -25 3 -9 11 -3 14 38 18 33 3 62 14 85 32 35 26 37 37 27 108 -1 4 -15 16 -32 28 -35 26 -115 34 -150 16z"/>
 <path d="M4975 1444 c-38 -7 -85 -16 -102 -19 l-33 -6 0 -68 c0 -137 -13 -372 -20 -359 -4 7 -24 78 -45 158 -20 80 -40 148 -43 152 -6 6 -211 -29 -220 -38 -2 -1 3 -32 11 -69 13 -56 23 -74 67 -121 28 -29 65 -84 82 -121 27 -57 32 -80 36 -169 4 -88 1 -114 -17 -172 -22 -66 -22 -71 -7 -129 21 -81 21 -82 -19 -99 -19 -8 -35 -18 -35 -23 0 -25 24 -72 35 -68 6 3 63 19 125 37 62 17 121 35 130 40 11 6 20 28 25 57 11 74 65 356 69 361 4 4 15 -42 41 -178 9 -47 21 -109 26 -138 7 -33 15 -52 22 -49 7 2 56 19 111 37 l98 32 -6 32 c-17 90 -244 930 -252 932 -5 1 -40 -4 -79 -12z"/>
 <path d="M591 1408 c-5 -13 -32 -91 -61 -173 -28 -83 -62 -179 -75 -215 -13 -36 -42 -120 -65 -187 -24 -68 -45 -123 -48 -123 -3 0 -16 10 -29 22 -13 12 -25 19 -28 16 -4 -4 -80 -204 -88 -231 -3 -11 89 -43 243 -83 114 -30 151 -36 240 -36 114 1 154 12 209 58 107 90 70 200 -142 421 l-99 102 47 168 c31 107 44 172 39 181 -5 7 -37 34 -72 58 l-62 45 -9 -23z m120 -713 c33 -53 27 -65 -37 -65 -31 0 -71 7 -89 16 l-33 15 20 67 c10 37 22 74 24 82 4 11 18 1 51 -35 25 -27 54 -63 64 -80z"/>
 <path d="M1143 1299 c-136 -26 -214 -134 -217 -299 -1 -111 23 -171 97 -244 123 -120 262 -153 394 -92 73 33 95 55 124 120 30 68 29 188 -1 269 -40 108 -175 226 -275 242 -22 3 -49 8 -60 9 -11 2 -39 0 -62 -5z m219 -326 c42 -37 78 -142 59 -172 -7 -11 -10 -9 -15 7 -9 27 -62 72 -86 72 -48 0 -64 -59 -29 -104 29 -37 18 -42 -34 -17 -83 40 -120 129 -76 185 44 56 135 71 181 29z"/>
 <path d="M3943 1246 c-72 -11 -134 -23 -136 -26 -3 -3 -15 -74 -26 -159 -11 -84 -22 -156 -25 -158 -2 -2 -17 18 -33 46 -15 28 -31 51 -34 51 -3 0 -20 -31 -39 -70 -18 -38 -35 -69 -36 -67 -2 1 -12 59 -24 127 -12 69 -25 128 -29 133 -4 4 -74 6 -156 5 l-148 -3 27 -32 c14 -17 33 -50 41 -74 15 -41 14 -43 -11 -76 l-27 -35 23 -151 c12 -84 24 -170 27 -192 3 -22 13 -85 22 -140 l17 -100 139 0 140 0 31 58 30 58 37 -81 36 -81 88 3 88 3 7 40 c5 22 14 77 21 123 l13 84 -29 36 c-57 70 -81 138 -85 240 -8 164 53 308 155 372 65 40 73 48 73 70 0 24 -2 24 -177 -4z"/>
 <path d="M2785 1160 c-125 -19 -184 -74 -206 -194 -18 -98 24 -260 84 -325 112 -120 320 -157 471 -82 36 18 66 38 66 45 0 7 -65 90 -145 185 -80 94 -145 174 -145 177 0 4 15 4 32 0 43 -9 101 -50 130 -92 13 -19 27 -33 31 -31 16 5 127 143 127 158 0 16 -49 65 -90 91 -43 26 -150 58 -224 68 -39 5 -73 9 -76 8 -3 0 -27 -4 -55 -8z m78 -355 c43 -52 75 -100 71 -106 -4 -7 -26 -9 -57 -6 -41 3 -56 11 -78 35 -16 17 -31 47 -35 67 -7 38 2 105 14 105 4 0 43 -43 85 -95z"/>
 <path d="M1738 1131 c-25 -10 -60 -28 -77 -40 -27 -20 -29 -24 -19 -49 6 -15 11 -72 11 -127 1 -87 -3 -109 -26 -166 -15 -36 -27 -72 -27 -80 0 -29 60 -117 110 -162 66 -60 130 -81 224 -75 39 3 86 12 104 22 43 22 109 90 132 136 l18 36 -93 33 c-88 31 -95 32 -117 17 -48 -34 -143 -3 -175 57 -32 60 -12 188 35 223 46 36 125 -8 156 -87 l17 -42 102 8 c56 4 104 8 106 10 8 9 -30 99 -64 149 -45 69 -90 103 -174 132 -82 29 -176 31 -243 5z"/>
 <path d="M4162 1132 c-106 -38 -172 -138 -180 -271 -2 -42 1 -95 7 -118 26 -95 138 -210 243 -248 110 -39 253 -11 322 65 62 69 82 186 51 304 -50 190 -276 327 -443 268z m261 -325 c35 -32 57 -87 57 -139 0 -36 -10 -35 -35 5 -24 37 -68 56 -93 41 -25 -16 -26 -60 -3 -99 24 -41 13 -44 -44 -12 -70 40 -105 121 -75 178 15 27 79 58 122 59 28 0 45 -8 71 -33z"/>
 <path d="M1870 875 c-6 -7 -10 -37 -8 -66 3 -46 7 -55 30 -68 15 -9 29 -13 32 -11 2 3 7 25 9 48 8 65 -35 131 -63 97z"/>
 <path d="M2196 823 c-3 -3 -6 -37 -6 -74 l0 -68 43 -11 c23 -6 49 -13 57 -16 19 -7 272 -64 282 -64 4 0 -4 19 -17 43 -14 23 -32 65 -41 92 -9 28 -17 51 -18 52 -1 1 -58 11 -126 22 -69 12 -134 23 -146 26 -12 3 -24 2 -28 -2z"/>
 <path d="M3195 806 c-17 -25 -16 -27 6 -51 34 -35 40 -31 33 18 -9 56 -19 65 -39 33z"/>
 <path d="M2090 750 c0 -5 5 -10 10 -10 6 0 10 5 10 10 0 6 -4 10 -10 10 -5 0 -10 -4 -10 -10z"/>
 <path d="M2692 353 c-29 -44 -30 -49 -14 -61 20 -15 269 -152 277 -152 11 0 125 184 118 191 -5 3 -62 16 -128 28 -66 13 -142 27 -168 32 -26 5 -49 9 -51 9 -1 0 -17 -21 -34 -47z"/>
 <path d="M3246 1444 c-32 -31 28 -102 87 -102 37 1 36 29 -4 79 -33 42 -58 49 -83 23z"/>
 </g>
<g id="layer105" fill="#4a7ab9" stroke="none">
 <path d="M0 1050 l0 -1050 2710 0 2710 0 0 1050 0 1050 -2710 0 -2710 0 0 -1050z m4786 984 c8 -11 12 -31 9 -47 -3 -17 2 -38 11 -53 9 -13 24 -54 34 -91 10 -38 23 -80 28 -94 6 -15 9 -29 6 -31 -2 -3 2 -24 11 -47 16 -47 8 -83 -24 -100 -32 -18 -76 -13 -97 10 l-19 21 -5 -23 c-3 -13 -20 -34 -38 -46 -27 -17 -39 -20 -64 -12 -24 6 -36 5 -48 -6 -9 -8 -23 -15 -31 -15 -8 0 -20 -5 -26 -11 -9 -9 -21 -8 -47 5 -28 13 -38 26 -47 59 -6 23 -11 52 -11 65 0 12 -4 25 -9 28 -5 3 -9 -1 -9 -10 0 -8 -13 -17 -30 -21 -16 -4 -32 -10 -35 -15 -3 -4 -22 -4 -42 0 -20 5 -40 7 -44 5 -11 -8 -68 25 -79 45 -12 23 2 64 26 78 15 9 14 12 -13 25 -16 9 -38 28 -47 42 -19 29 -24 98 -8 118 14 16 98 41 117 33 8 -3 28 0 43 6 29 12 68 11 91 -2 9 -5 21 1 35 17 16 18 35 26 71 30 28 3 55 10 62 15 7 5 30 11 51 12 23 2 48 12 60 24 16 16 27 18 61 12 23 -4 49 -16 57 -26z m-3829 -17 c18 -10 49 -34 69 -54 l37 -36 14 26 c24 48 89 50 111 4 9 -19 17 -25 25 -19 20 15 110 7 139 -12 29 -19 78 -79 78 -95 0 -5 5 -13 11 -16 6 -4 9 -1 8 6 -2 8 4 30 13 50 26 60 81 61 127 3 20 -25 20 -25 39 -6 19 19 74 22 112 5 8 -4 39 -8 68 -9 33 -1 60 -8 72 -19 10 -9 24 -14 31 -9 20 12 82 6 98 -10 33 -34 11 -202 -38 -282 -34 -56 -134 -65 -196 -16 -36 28 -67 16 -80 -31 -13 -45 -24 -56 -57 -59 -37 -3 -73 19 -91 55 -14 29 -17 30 -22 12 -10 -32 -58 -49 -100 -35 -40 13 -51 39 -41 100 7 46 -2 54 -41 39 -31 -13 -87 -15 -124 -6 -15 4 -34 22 -48 47 -20 37 -26 40 -51 35 -19 -4 -38 0 -61 15 -19 11 -50 25 -70 30 -54 15 -86 49 -83 89 1 19 9 38 19 43 14 8 13 12 -9 29 -31 24 -41 20 -50 -23 -14 -69 39 -208 78 -208 20 0 27 -40 15 -83 -15 -56 -61 -72 -119 -42 -31 16 -100 140 -102 185 -1 14 -5 30 -10 36 -18 25 -12 182 9 217 15 26 68 65 93 69 35 5 90 -6 127 -25z m3014 -173 c13 -14 24 -39 25 -57 1 -18 4 -62 8 -99 7 -72 -3 -106 -43 -142 -21 -19 -70 -25 -109 -12 -14 5 -29 3 -37 -4 -8 -7 -52 -14 -97 -17 -123 -7 -129 -6 -146 10 -13 14 -18 13 -46 -7 -17 -12 -50 -30 -74 -38 -38 -15 -45 -15 -73 -1 -17 8 -35 27 -41 42 -21 53 -32 76 -44 91 -21 28 -23 59 -4 82 9 13 21 37 24 55 4 17 17 42 30 56 20 22 28 24 69 17 26 -4 55 -14 65 -23 10 -10 22 -17 27 -17 5 0 17 -7 27 -17 22 -20 27 -16 31 27 5 45 31 62 87 57 25 -2 66 1 92 6 38 8 51 7 72 -6 22 -15 26 -15 34 -2 9 18 59 34 84 27 9 -2 27 -15 39 -28z m-1626 -34 c8 -7 15 -21 15 -31 0 -25 4 -24 34 6 36 36 73 32 139 -15 l57 -41 35 36 c34 33 56 41 114 37 34 -2 111 -40 111 -55 1 -6 7 2 14 19 19 42 66 60 107 39 43 -23 50 -44 43 -138 -6 -80 -6 -83 18 -99 31 -20 30 -76 -1 -97 -12 -7 -21 -22 -21 -32 0 -58 -46 -96 -101 -82 -38 10 -59 41 -59 90 0 41 -18 46 -58 16 -47 -35 -109 -26 -157 23 -38 37 -50 41 -58 20 -7 -18 -60 -46 -105 -57 -32 -7 -92 8 -92 23 0 4 -11 8 -25 8 -22 0 -25 -4 -25 -33 0 -41 -24 -66 -71 -73 -27 -5 -40 -1 -62 20 -27 25 -38 78 -17 91 5 3 1 14 -10 25 -30 30 -27 87 5 102 16 7 26 20 27 37 0 14 2 31 3 36 1 6 5 34 9 63 5 32 15 57 26 65 22 15 85 13 105 -3z m-1635 -342 c36 -26 72 -54 80 -61 8 -8 26 -20 38 -26 28 -15 27 -31 -19 -178 -16 -53 -32 -109 -34 -124 -3 -16 -9 -39 -14 -52 -8 -21 -4 -30 30 -63 l39 -38 0 56 c0 197 95 351 245 397 124 39 247 18 364 -60 55 -37 78 -60 148 -146 l18 -23 58 29 c122 63 258 63 388 2 97 -46 190 -150 224 -249 14 -40 39 -51 151 -66 l51 -6 5 79 c14 241 198 357 487 307 52 -9 115 -26 140 -37 28 -12 47 -16 49 -9 4 11 285 12 407 1 60 -5 70 -9 73 -26 1 -11 5 -31 8 -45 l6 -25 15 29 c14 27 17 28 28 12 13 -16 13 -16 18 1 3 10 9 46 12 81 4 34 10 62 14 62 4 0 88 13 187 29 98 16 203 32 233 35 l53 7 -7 -59 -7 -59 81 -6 c44 -4 97 -13 117 -22 20 -8 39 -13 42 -11 2 3 -1 28 -8 56 -7 29 -9 55 -4 60 5 4 81 22 169 40 88 17 163 37 167 43 4 7 8 28 8 47 l0 35 128 23 c70 12 148 25 174 28 l47 7 10 -39 c73 -276 101 -389 101 -404 0 -11 4 -22 10 -25 6 -3 10 -18 10 -33 0 -15 7 -47 16 -72 9 -25 22 -72 30 -105 7 -33 34 -136 59 -229 25 -92 45 -173 45 -180 0 -13 -311 -126 -348 -126 -13 0 -22 6 -22 15 0 22 -14 18 -25 -7 -11 -24 -55 -40 -339 -123 -61 -18 -75 -14 -76 25 0 8 -11 42 -25 75 -33 80 -32 92 10 112 19 9 35 23 35 30 0 15 -16 17 -25 3 -24 -38 -173 -79 -273 -75 -67 3 -129 25 -233 82 -7 5 -39 -158 -43 -224 0 -12 -3 -23 -6 -26 -3 -2 -69 -7 -147 -10 l-142 -7 -11 35 c-12 36 -25 45 -33 23 -3 -10 -49 -12 -192 -11 -103 1 -190 4 -192 7 -3 2 -14 62 -25 133 -11 70 -22 130 -24 132 -2 2 -26 -10 -54 -27 -28 -17 -68 -37 -91 -43 -48 -15 -39 -22 53 -39 l67 -12 -24 -33 c-14 -17 -25 -35 -25 -38 0 -7 -50 -84 -100 -155 -16 -23 -30 -45 -30 -47 0 -3 -16 -30 -36 -60 l-35 -56 -77 43 c-42 23 -97 54 -122 69 -25 15 -67 39 -95 53 -52 27 -157 85 -164 92 -2 2 27 51 64 109 37 58 66 108 64 109 -2 2 -65 18 -139 36 -74 18 -142 36 -150 40 -8 4 -37 10 -65 14 l-50 6 -28 -45 c-41 -64 -128 -140 -183 -159 -191 -65 -374 9 -483 196 l-27 47 -40 -24 c-21 -13 -48 -25 -59 -25 -12 0 -26 -5 -32 -11 -6 -6 -44 -13 -85 -16 -61 -5 -89 -1 -149 17 -41 13 -83 29 -94 36 -28 20 -30 18 -30 -28 -1 -92 -95 -210 -193 -242 -104 -34 -243 -31 -417 11 -83 19 -375 113 -375 120 0 4 11 25 24 47 13 23 43 95 67 161 51 142 69 172 112 183 35 9 35 9 216 524 l73 207 46 -31 c26 -18 76 -54 112 -80z m2643 -22 c46 -55 55 -96 27 -121 -64 -58 -210 46 -170 120 15 28 65 55 91 48 10 -3 34 -24 52 -47z"/>
 <path d="M4702 2021 c-8 -4 -12 -19 -10 -32 2 -19 9 -24 33 -24 33 0 45 25 25 50 -14 17 -29 19 -48 6z"/>
 <path d="M4593 1990 c-22 -9 -29 -23 -23 -45 3 -9 7 -59 14 -150 5 -82 18 -171 27 -202 9 -29 15 -33 45 -33 44 0 49 14 30 81 -14 51 -26 165 -30 287 -1 34 -7 57 -17 63 -17 10 -17 10 -46 -1z"/>
 <path d="M4457 1958 c-15 -11 -17 -23 -11 -83 3 -39 8 -106 10 -150 8 -159 14 -182 51 -196 32 -12 67 6 58 29 -13 33 -36 196 -31 221 3 15 0 62 -7 106 -10 68 -15 80 -32 83 -11 1 -28 -3 -38 -10z"/>
 <path d="M4310 1912 c-18 -15 -32 -17 -69 -11 -58 9 -81 -3 -81 -40 0 -35 37 -69 122 -112 51 -26 58 -32 47 -46 -10 -11 -24 -14 -60 -9 -28 4 -50 2 -54 -4 -9 -15 13 -49 33 -49 9 0 35 -2 57 -6 33 -4 45 -1 69 19 29 24 30 27 30 118 1 82 -2 97 -22 126 -27 37 -41 39 -72 14z m14 -97 c10 -28 7 -40 -6 -27 -7 7 -19 12 -28 12 -18 0 -43 36 -35 50 8 13 61 -14 69 -35z"/>
 <path d="M4728 1913 c-22 -5 -23 -30 -4 -80 16 -42 29 -90 31 -113 1 -8 3 -19 5 -25 6 -22 7 -31 8 -51 1 -12 13 -29 26 -37 22 -15 25 -14 45 5 18 16 21 26 15 51 -3 18 -10 37 -15 43 -5 6 -6 14 -2 17 3 4 1 12 -4 19 -6 7 -14 29 -17 48 -4 19 -11 44 -16 55 -5 11 -11 32 -14 48 -6 27 -18 31 -58 20z"/>
 <path d="M4700 1750 c0 -7 3 -10 7 -7 3 4 3 10 0 14 -4 3 -7 0 -7 -7z"/>
 <path d="M4710 1686 c0 -14 5 -28 10 -31 6 -3 10 5 10 19 0 14 -4 28 -10 31 -6 3 -10 -5 -10 -19z"/>
 <path d="M818 2002 c-9 -4 -27 -20 -40 -37 -20 -26 -23 -40 -22 -110 0 -44 4 -89 8 -100 5 -11 10 -29 12 -40 6 -39 49 -113 82 -140 28 -23 35 -25 48 -14 37 31 34 79 -6 79 -27 0 -73 150 -67 216 7 64 16 91 33 98 28 11 97 -40 149 -109 l35 -45 -41 27 c-40 26 -42 27 -55 8 -8 -10 -14 -22 -14 -26 0 -11 56 -49 72 -49 7 0 32 -11 56 -25 l43 -24 10 26 c5 14 12 48 15 75 3 26 12 61 20 76 18 34 18 47 -1 62 -21 18 -53 -12 -61 -56 -3 -19 -9 -34 -12 -34 -3 0 -26 22 -52 50 -73 78 -156 114 -212 92z"/>
 <path d="M1234 1911 c-12 -5 -34 -35 -49 -65 l-27 -56 22 -70 c27 -83 42 -95 113 -86 120 14 156 156 63 244 -38 35 -86 48 -122 33z m83 -78 c23 -50 -5 -143 -43 -143 -31 0 -40 112 -12 148 15 18 46 15 55 -5z"/>
 <path d="M1491 1858 c-5 -13 -15 -56 -22 -97 -12 -70 -14 -74 -47 -88 -28 -11 -32 -16 -22 -28 7 -8 19 -15 26 -15 18 0 18 -11 -2 -61 -15 -37 -15 -42 -1 -56 23 -24 65 -9 73 25 13 59 12 58 57 58 45 -1 46 -3 34 -53 -11 -44 5 -72 41 -70 24 2 28 8 36 50 8 40 13 47 32 47 32 0 41 20 18 39 -21 18 -29 58 -15 75 6 7 10 21 10 31 0 11 3 45 7 76 6 51 5 57 -13 63 -36 11 -49 -3 -62 -67 -7 -34 -14 -71 -15 -82 -4 -46 -48 -79 -81 -61 -11 6 -21 12 -23 12 -1 1 2 13 7 27 22 58 40 171 29 184 -17 21 -57 16 -67 -9z"/>
 <path d="M1596 1821 c-4 -7 -5 -15 -2 -18 9 -9 19 4 14 18 -4 11 -6 11 -12 0z"/>
 <path d="M1776 1815 c-19 -19 -19 -22 -5 -66 6 -19 36 -57 66 -86 68 -63 62 -96 -11 -58 -32 17 -62 19 -70 6 -12 -19 8 -41 60 -67 47 -23 57 -25 81 -14 44 20 85 114 89 200 3 66 2 68 -24 75 -19 5 -30 2 -39 -11 -12 -17 -14 -16 -35 3 -32 29 -91 38 -112 18z m117 -91 c10 -14 16 -32 13 -41 -6 -14 -10 -13 -32 8 -32 30 -47 56 -39 69 8 12 34 -4 58 -36z"/>
 <path d="M1580 1734 c0 -8 5 -12 10 -9 6 3 10 10 10 16 0 5 -4 9 -10 9 -5 0 -10 -7 -10 -16z"/>
 <path d="M1739 1705 c-8 -61 -8 -67 7 -61 9 3 20 6 25 6 14 0 10 13 -11 40 -11 14 -20 21 -21 15z"/>
 <path d="M3879 1824 c-8 -10 -8 -30 0 -77 18 -102 15 -124 -14 -129 -34 -7 -50 15 -52 71 -3 77 -14 129 -29 135 -8 3 -26 1 -40 -4 -22 -9 -25 -14 -19 -38 4 -15 8 -38 9 -52 1 -14 6 -40 10 -57 15 -66 -15 -95 -52 -49 -16 21 -18 39 -16 105 2 71 0 81 -17 86 -27 9 -59 -4 -60 -23 0 -9 -1 -69 -2 -132 l-2 -115 34 2 c18 1 37 7 42 14 6 11 15 10 43 -4 37 -17 59 -15 88 11 14 11 23 12 49 3 48 -17 67 -14 96 15 25 25 25 28 19 115 -8 113 -17 137 -50 137 -14 0 -31 -7 -37 -14z"/>
 <path d="M3372 1777 c-12 -13 -25 -38 -28 -56 -4 -18 -13 -35 -20 -38 -19 -7 -17 -19 5 -40 10 -10 21 -31 24 -48 14 -74 23 -85 72 -85 37 0 51 5 70 26 51 55 39 90 -40 116 -43 14 -58 45 -33 66 11 8 26 2 66 -25 37 -26 55 -34 63 -26 20 20 4 46 -41 70 -25 13 -60 33 -78 43 -40 24 -34 25 -60 -3z m86 -189 c-3 -7 -11 -13 -18 -13 -7 0 -15 6 -17 13 -3 7 4 12 17 12 13 0 20 -5 18 -12z"/>
 <path d="M2268 1778 c-14 -12 -29 -84 -32 -163 -1 -21 -7 -31 -21 -33 -35 -7 -40 -20 -17 -45 17 -18 20 -31 17 -63 -4 -32 -1 -44 15 -59 20 -18 21 -18 43 3 14 14 22 35 22 55 0 27 4 32 27 35 39 5 44 30 8 46 -17 7 -28 15 -25 17 3 4 17 141 17 179 1 42 -22 53 -54 28z"/>
 <path d="M2413 1753 c-13 -8 -23 -26 -23 -39 0 -13 -9 -28 -20 -34 -23 -12 -27 -50 -6 -50 9 0 15 -17 18 -54 3 -30 10 -62 17 -70 17 -21 74 -20 114 0 60 31 63 63 10 98 -70 47 -76 53 -69 80 3 15 10 26 15 26 5 0 31 -20 58 -45 44 -39 52 -43 68 -31 17 13 16 16 -17 50 -19 20 -38 36 -42 36 -4 0 -22 11 -40 25 -38 29 -52 30 -83 8z m70 -188 c1 -5 -6 -11 -15 -13 -11 -2 -18 3 -18 13 0 17 30 18 33 0z"/>
 <path d="M2662 1751 c-31 -25 -36 -57 -13 -80 23 -23 38 -26 61 -11 12 8 13 13 2 30 -10 17 -10 21 3 27 22 8 65 -13 65 -31 0 -30 -30 -46 -89 -46 -32 0 -65 -6 -75 -13 -18 -13 -18 -15 0 -54 21 -44 66 -87 103 -96 48 -12 101 52 61 73 -26 14 -36 13 -55 -6 -15 -16 -18 -15 -38 4 -11 12 -19 24 -16 26 2 3 27 6 54 7 101 6 144 56 111 131 -19 43 -136 69 -174 39z"/>
 <path d="M2895 1731 c-4 -22 -4 -70 0 -106 7 -61 6 -65 -13 -65 -11 0 -25 -6 -31 -14 -10 -12 -7 -18 18 -31 25 -12 29 -19 22 -33 -12 -24 -11 -70 3 -81 17 -14 60 -8 63 9 10 76 15 90 32 90 27 0 34 28 11 42 -17 11 -20 24 -21 78 0 36 -3 83 -7 105 -6 36 -11 40 -39 43 -29 3 -31 1 -38 -37z"/>
 <path d="M4975 1444 c-38 -7 -85 -16 -102 -19 l-33 -6 0 -68 c0 -137 -13 -372 -20 -359 -4 7 -24 78 -45 158 -20 80 -40 148 -43 152 -6 6 -211 -29 -220 -38 -2 -1 3 -32 11 -69 13 -56 23 -74 67 -121 28 -29 65 -84 82 -121 27 -57 32 -80 36 -169 4 -88 1 -114 -17 -172 -22 -66 -22 -71 -7 -129 21 -81 21 -82 -19 -99 -19 -8 -35 -18 -35 -23 0 -25 24 -72 35 -68 6 3 63 19 125 37 62 17 121 35 130 40 11 6 20 28 25 57 11 74 65 356 69 361 4 4 15 -42 41 -178 9 -47 21 -109 26 -138 7 -33 15 -52 22 -49 7 2 56 19 111 37 l98 32 -6 32 c-17 90 -244 930 -252 932 -5 1 -40 -4 -79 -12z"/>
 <path d="M591 1408 c-5 -13 -32 -91 -61 -173 -28 -83 -62 -179 -75 -215 -13 -36 -42 -120 -65 -187 -24 -68 -45 -123 -48 -123 -3 0 -16 10 -29 22 -13 12 -25 19 -28 16 -4 -4 -80 -204 -88 -231 -3 -11 89 -43 243 -83 114 -30 151 -36 240 -36 114 1 154 12 209 58 107 90 70 200 -142 421 l-99 102 47 168 c31 107 44 172 39 181 -5 7 -37 34 -72 58 l-62 45 -9 -23z m120 -713 c33 -53 27 -65 -37 -65 -31 0 -71 7 -89 16 l-33 15 20 67 c10 37 22 74 24 82 4 11 18 1 51 -35 25 -27 54 -63 64 -80z"/>
 <path d="M1143 1299 c-136 -26 -214 -134 -217 -299 -1 -111 23 -171 97 -244 123 -120 262 -153 394 -92 73 33 95 55 124 120 30 68 29 188 -1 269 -40 108 -175 226 -275 242 -22 3 -49 8 -60 9 -11 2 -39 0 -62 -5z m219 -326 c42 -37 78 -142 59 -172 -7 -11 -10 -9 -15 7 -9 27 -62 72 -86 72 -48 0 -64 -59 -29 -104 29 -37 18 -42 -34 -17 -83 40 -120 129 -76 185 44 56 135 71 181 29z"/>
 <path d="M3943 1246 c-72 -11 -134 -23 -136 -26 -3 -3 -15 -74 -26 -159 -11 -84 -22 -156 -25 -158 -2 -2 -17 18 -33 46 -15 28 -31 51 -34 51 -3 0 -20 -31 -39 -70 -18 -38 -35 -69 -36 -67 -2 1 -12 59 -24 127 -12 69 -25 128 -29 133 -4 4 -74 6 -156 5 l-148 -3 27 -32 c14 -17 33 -50 41 -74 15 -41 14 -43 -11 -76 l-27 -35 23 -151 c12 -84 24 -170 27 -192 3 -22 13 -85 22 -140 l17 -100 139 0 140 0 31 58 30 58 37 -81 36 -81 88 3 88 3 7 40 c5 22 14 77 21 123 l13 84 -29 36 c-57 70 -81 138 -85 240 -8 164 53 308 155 372 65 40 73 48 73 70 0 24 -2 24 -177 -4z"/>
 <path d="M2785 1160 c-125 -19 -184 -74 -206 -194 -18 -98 24 -260 84 -325 112 -120 320 -157 471 -82 36 18 66 38 66 45 0 7 -65 90 -145 185 -80 94 -145 174 -145 177 0 4 15 4 32 0 43 -9 101 -50 130 -92 13 -19 27 -33 31 -31 16 5 127 143 127 158 0 16 -49 65 -90 91 -43 26 -150 58 -224 68 -39 5 -73 9 -76 8 -3 0 -27 -4 -55 -8z m78 -355 c43 -52 75 -100 71 -106 -4 -7 -26 -9 -57 -6 -41 3 -56 11 -78 35 -16 17 -31 47 -35 67 -7 38 2 105 14 105 4 0 43 -43 85 -95z"/>
 <path d="M1738 1131 c-25 -10 -60 -28 -77 -40 -27 -20 -29 -24 -19 -49 6 -15 11 -72 11 -127 1 -87 -3 -109 -26 -166 -15 -36 -27 -72 -27 -80 0 -29 60 -117 110 -162 66 -60 130 -81 224 -75 39 3 86 12 104 22 43 22 109 90 132 136 l18 36 -93 33 c-88 31 -95 32 -117 17 -48 -34 -143 -3 -175 57 -32 60 -12 188 35 223 46 36 125 -8 156 -87 l17 -42 102 8 c56 4 104 8 106 10 8 9 -30 99 -64 149 -45 69 -90 103 -174 132 -82 29 -176 31 -243 5z"/>
 <path d="M4162 1132 c-106 -38 -172 -138 -180 -271 -2 -42 1 -95 7 -118 26 -95 138 -210 243 -248 110 -39 253 -11 322 65 62 69 82 186 51 304 -50 190 -276 327 -443 268z m261 -325 c35 -32 57 -87 57 -139 0 -36 -10 -35 -35 5 -24 37 -68 56 -93 41 -25 -16 -26 -60 -3 -99 24 -41 13 -44 -44 -12 -70 40 -105 121 -75 178 15 27 79 58 122 59 28 0 45 -8 71 -33z"/>
 <path d="M1870 864 c-22 -58 2 -124 45 -124 34 0 15 130 -21 144 -9 4 -18 -4 -24 -20z"/>
 <path d="M2196 823 c-3 -3 -6 -37 -6 -74 l0 -68 43 -11 c23 -6 49 -13 57 -16 19 -7 272 -64 282 -64 4 0 -4 19 -17 43 -14 23 -32 65 -41 92 -9 28 -17 51 -18 52 -1 1 -58 11 -126 22 -69 12 -134 23 -146 26 -12 3 -24 2 -28 -2z"/>
 <path d="M3200 804 c-12 -13 -11 -20 2 -42 25 -41 36 -38 28 8 -9 50 -13 55 -30 34z"/>
 <path d="M2090 750 c0 -5 5 -10 10 -10 6 0 10 5 10 10 0 6 -4 10 -10 10 -5 0 -10 -4 -10 -10z"/>
 <path d="M2692 353 c-29 -44 -30 -49 -14 -61 20 -15 269 -152 277 -152 11 0 125 184 118 191 -5 3 -62 16 -128 28 -66 13 -142 27 -168 32 -26 5 -49 9 -51 9 -1 0 -17 -21 -34 -47z"/>
 <path d="M3259 1441 c-22 -17 -22 -21 -10 -45 22 -40 59 -60 87 -47 29 13 30 25 7 49 -10 10 -23 27 -29 37 -15 27 -28 28 -55 6z"/>
 </g>
<g id="layer106" fill="#ffcc00" stroke="none">
 <path d="M0 1050 l0 -1050 2710 0 2710 0 0 1050 0 1050 -2710 0 -2710 0 0 -1050z m4780 993 c15 -20 20 -36 16 -56 -3 -17 0 -37 9 -50 21 -33 86 -253 88 -299 1 -31 -4 -45 -22 -59 -31 -26 -83 -25 -107 2 l-19 21 -5 -23 c-3 -13 -20 -34 -38 -46 -26 -17 -39 -20 -63 -13 -24 7 -37 4 -66 -16 -42 -28 -54 -29 -92 -9 -30 15 -45 45 -56 109 -5 32 -8 36 -18 22 -18 -24 -63 -33 -131 -25 -48 6 -65 13 -84 34 -24 28 -23 56 4 84 11 12 7 20 -26 52 -72 70 -62 147 21 169 23 7 51 9 62 6 11 -2 30 2 43 11 17 11 37 14 66 10 32 -4 47 -1 66 14 16 12 41 19 71 19 25 0 55 7 65 15 11 8 33 15 49 15 16 0 40 9 54 20 38 29 87 26 113 -7z m-3829 -24 c22 -11 58 -36 79 -56 22 -19 40 -30 40 -24 0 21 40 51 69 51 19 0 36 -8 48 -22 15 -20 28 -23 85 -23 65 0 69 -1 107 -39 23 -22 44 -48 47 -58 7 -25 20 -15 27 21 5 22 14 32 41 41 50 16 84 -1 113 -58 1 -2 11 6 22 17 25 25 77 28 109 5 13 -9 33 -13 45 -10 12 3 40 1 62 -5 22 -5 63 -11 91 -12 28 -1 58 -8 67 -15 56 -47 3 -287 -72 -326 -41 -22 -77 -20 -136 8 -56 26 -95 21 -95 -13 0 -35 -33 -63 -74 -63 -43 0 -71 21 -81 60 l-7 27 -14 -26 c-17 -33 -55 -44 -100 -29 -38 13 -47 33 -42 93 3 41 3 42 -27 38 -16 -2 -57 -5 -89 -5 -59 -1 -60 -1 -94 44 -26 34 -40 44 -58 42 -31 -4 -189 71 -203 96 -16 31 -13 60 8 79 19 16 19 17 -5 35 -13 11 -28 16 -34 13 -17 -10 -10 -126 9 -175 12 -28 30 -51 47 -61 43 -23 45 -88 4 -129 -43 -43 -113 -16 -153 58 -77 141 -95 307 -43 385 45 68 120 81 207 36z m3025 -170 c12 -13 20 -49 27 -123 8 -94 7 -109 -9 -143 -26 -52 -64 -69 -125 -56 -36 7 -51 6 -65 -4 -10 -7 -45 -13 -79 -14 -33 0 -77 0 -97 -1 -23 -1 -45 5 -56 15 -18 16 -20 16 -38 -4 -46 -50 -136 -69 -173 -35 -11 10 -28 39 -37 65 -10 25 -24 53 -31 62 -20 23 -19 72 1 100 9 13 16 32 16 42 0 28 54 77 86 77 15 0 55 -15 90 -34 34 -19 65 -32 68 -29 3 4 6 17 6 29 0 35 39 55 102 54 29 -1 70 2 91 6 26 4 44 2 62 -10 21 -14 25 -14 33 -1 10 19 58 33 89 27 12 -2 30 -13 39 -23z m-1638 -35 c12 -8 22 -22 22 -30 0 -19 7 -18 37 6 38 30 73 25 136 -20 30 -22 58 -40 60 -40 3 0 7 9 10 19 14 54 128 72 205 33 23 -13 42 -28 42 -35 1 -6 7 2 14 19 25 58 103 65 140 12 13 -19 15 -38 10 -103 -6 -77 -5 -81 20 -104 33 -31 33 -65 1 -95 -14 -13 -25 -31 -25 -40 0 -50 -43 -88 -90 -80 -51 8 -70 30 -70 80 0 51 -15 59 -53 28 -51 -43 -108 -31 -180 35 -26 24 -29 25 -38 8 -12 -21 -61 -47 -108 -58 -35 -8 -80 4 -93 24 -11 18 -42 -5 -46 -34 -10 -68 -100 -95 -142 -42 -16 20 -20 38 -17 63 2 24 -2 43 -15 61 -24 32 -15 76 16 91 19 8 24 22 33 96 9 69 15 89 33 104 27 22 68 23 98 2z m-1628 -346 c36 -26 82 -60 103 -75 45 -32 45 -33 -4 -190 -16 -53 -32 -109 -34 -124 -3 -16 -9 -39 -14 -52 -8 -21 -4 -30 30 -63 l39 -38 0 56 c0 197 95 351 245 397 124 39 247 18 364 -60 55 -37 78 -60 148 -146 l18 -23 58 29 c122 63 258 63 388 2 97 -46 190 -150 224 -249 14 -40 39 -51 151 -66 l51 -6 5 79 c14 241 198 357 487 307 52 -9 115 -26 140 -37 28 -12 47 -16 49 -9 4 11 285 12 407 1 60 -5 70 -9 73 -26 1 -11 5 -31 8 -45 l6 -25 15 29 c14 27 17 28 28 12 13 -16 13 -16 18 1 3 10 9 46 12 81 4 34 10 62 14 62 4 0 88 13 187 29 98 16 203 32 233 35 l53 7 -7 -59 -7 -59 81 -6 c44 -4 97 -13 117 -22 20 -8 39 -13 42 -11 2 3 -1 28 -8 56 -7 29 -9 55 -4 60 5 4 81 22 169 40 88 17 163 37 167 43 4 7 8 28 8 47 l0 35 128 23 c70 12 148 25 174 28 l47 7 10 -39 c5 -22 33 -127 62 -234 28 -107 55 -212 60 -232 5 -20 40 -157 79 -303 38 -147 70 -272 70 -279 0 -10 -337 -136 -362 -136 -5 0 -8 9 -8 20 0 27 -18 25 -22 -2 -3 -25 -15 -29 -248 -97 -175 -51 -152 -57 -189 51 -17 52 -31 100 -31 106 0 7 16 20 35 29 19 9 35 23 35 30 0 18 -4 17 -45 -11 -63 -43 -132 -61 -231 -61 -86 0 -95 2 -175 42 -46 23 -85 41 -86 40 -1 -1 -9 -56 -19 -122 -9 -66 -20 -123 -23 -126 -3 -4 -70 -9 -147 -12 l-142 -7 -12 30 c-12 30 -30 41 -30 18 0 -8 -50 -9 -192 -4 -106 4 -194 9 -196 11 -2 2 -13 61 -24 132 -11 70 -22 130 -24 132 -2 2 -25 -9 -51 -25 -26 -16 -68 -36 -93 -45 -50 -18 -54 -16 62 -41 l58 -13 -114 -175 c-63 -96 -120 -183 -128 -192 -12 -17 -21 -13 -123 43 -160 89 -339 191 -344 195 -2 2 27 51 64 109 37 58 66 108 64 109 -5 5 -381 96 -394 96 -6 0 -23 -20 -38 -45 -96 -151 -263 -217 -425 -167 -32 11 -80 33 -106 51 -50 34 -118 115 -144 168 l-16 33 -42 -25 c-117 -69 -279 -71 -405 -6 -49 26 -52 26 -44 0 4 -11 1 -44 -6 -72 -16 -70 -109 -166 -184 -190 -106 -35 -254 -32 -420 9 -88 22 -375 115 -375 121 0 4 11 25 24 47 13 23 43 95 67 161 51 142 69 172 112 183 35 9 35 9 216 524 l73 207 46 -31 c26 -18 76 -54 112 -80z m2650 -30 c47 -60 50 -88 13 -118 -33 -26 -68 -22 -114 12 -57 42 -75 104 -39 136 51 43 88 35 140 -30z"/>
 <path d="M4702 2021 c-21 -13 -11 -55 15 -59 28 -4 50 32 32 54 -13 16 -28 18 -47 5z"/>
 <path d="M4582 1977 c-9 -10 -9 -42 -1 -123 27 -285 29 -294 74 -294 37 0 49 23 34 67 -7 21 -20 110 -28 198 -16 160 -16 160 -42 163 -14 2 -31 -3 -37 -11z"/>
 <path d="M4455 1947 c-14 -11 -16 -21 -11 -48 3 -19 10 -101 16 -182 5 -81 15 -157 20 -168 11 -20 45 -25 69 -10 12 8 13 18 3 63 -7 29 -16 117 -21 195 -5 78 -12 146 -16 152 -9 15 -37 14 -60 -2z"/>
 <path d="M4323 1923 c-7 -2 -13 -11 -13 -18 0 -10 -14 -12 -58 -8 -46 4 -62 2 -75 -12 -21 -21 -21 -23 2 -61 11 -19 45 -44 90 -68 40 -21 70 -43 68 -49 -2 -7 -26 -12 -58 -12 -43 0 -54 -3 -57 -17 -5 -24 39 -40 96 -36 66 4 87 37 86 132 -1 106 -35 169 -81 149z m-28 -80 c25 -12 35 -23 35 -40 0 -27 -2 -28 -39 -9 -35 18 -55 42 -46 56 8 13 8 13 50 -7z"/>
 <path d="M4727 1905 c-13 -13 -12 -24 8 -94 13 -44 27 -101 31 -126 8 -58 33 -90 61 -81 12 4 23 12 26 19 6 16 -60 246 -79 274 -17 27 -27 28 -47 8z"/>
 <path d="M802 1985 c-62 -52 -62 -176 0 -325 21 -49 64 -100 84 -100 14 0 44 38 44 56 0 7 -11 15 -24 18 -16 4 -32 22 -47 53 -20 40 -24 64 -24 146 0 86 2 100 19 113 29 20 39 18 85 -21 46 -37 114 -115 108 -122 -3 -2 -21 6 -41 18 -35 20 -39 21 -54 5 -14 -14 -14 -18 -2 -29 22 -19 159 -82 165 -75 5 5 35 162 38 203 1 14 -4 20 -18 20 -15 0 -23 -12 -35 -51 l-15 -50 -53 57 c-53 58 -137 109 -178 109 -12 0 -36 -11 -52 -25z"/>
 <path d="M1222 1894 c-50 -35 -67 -120 -37 -191 23 -56 43 -73 84 -73 72 0 131 63 131 140 0 96 -109 173 -178 124z m99 -65 c23 -44 -9 -139 -47 -139 -31 0 -40 112 -12 148 16 19 46 14 59 -9z"/>
 <path d="M1506 1867 c-9 -7 -23 -48 -34 -102 -18 -84 -20 -90 -45 -93 -32 -4 -36 -31 -6 -39 15 -4 19 -11 14 -27 -18 -63 -17 -84 3 -95 28 -15 51 -4 58 28 12 53 15 60 32 59 9 0 24 2 32 6 8 3 22 2 30 -4 12 -7 12 -16 3 -52 -14 -51 -3 -71 36 -66 22 2 28 10 35 46 8 34 14 42 32 42 34 0 40 21 14 42 l-24 20 17 83 c22 107 22 122 -3 130 -40 13 -53 -15 -75 -163 -5 -33 -11 -42 -22 -38 -9 4 -21 1 -29 -5 -9 -7 -19 -7 -33 1 -23 12 -23 9 5 121 8 31 14 66 14 78 0 27 -32 44 -54 28z"/>
 <path d="M1776 1814 c-9 -8 -16 -20 -16 -25 0 -29 35 -85 80 -129 29 -27 49 -54 45 -59 -9 -16 -47 -13 -73 5 -26 18 -52 12 -52 -11 0 -10 22 -26 56 -42 48 -22 59 -23 84 -13 48 20 100 162 85 232 -8 33 -43 48 -60 25 -10 -14 -17 -13 -60 8 -57 29 -68 30 -89 9z m106 -71 c28 -27 36 -57 19 -67 -9 -6 -71 58 -71 73 0 9 11 21 19 21 3 0 18 -12 33 -27z"/>
 <path d="M1740 1670 c0 -13 5 -20 13 -17 6 2 12 10 12 17 0 7 -6 15 -12 18 -8 2 -13 -5 -13 -18z"/>
 <path d="M3881 1821 c-11 -7 -11 -20 -2 -73 6 -36 11 -81 11 -101 0 -32 -3 -37 -23 -37 -39 0 -54 28 -61 113 -7 92 -9 97 -42 97 -34 0 -37 -15 -24 -107 15 -113 -4 -145 -50 -86 -18 23 -21 39 -20 93 1 36 2 71 1 78 -1 13 -57 17 -64 5 -3 -5 -8 -61 -11 -125 -7 -111 -6 -117 13 -128 25 -13 61 2 61 26 0 13 5 12 26 -5 33 -26 68 -27 94 -1 18 18 22 18 54 5 50 -21 73 -19 102 11 25 25 26 27 19 117 -4 51 -11 100 -16 110 -10 18 -45 22 -68 8z"/>
 <path d="M3372 1774 c-13 -9 -24 -30 -28 -55 -4 -21 -10 -39 -15 -39 -14 0 -10 -37 5 -43 7 -3 16 -21 19 -40 8 -51 35 -87 64 -87 32 0 78 25 97 51 21 31 6 53 -54 84 -39 20 -50 31 -50 50 0 39 18 39 75 0 51 -36 75 -39 75 -11 0 14 -110 89 -145 100 -12 3 -30 -1 -43 -10z m77 -173 c12 -8 12 -12 2 -25 -16 -19 -27 -14 -34 14 -5 21 8 26 32 11z"/>
 <path d="M2270 1780 c-10 -6 -18 -39 -25 -102 -9 -86 -12 -92 -35 -98 -31 -7 -33 -32 -3 -45 18 -7 21 -15 15 -40 -10 -50 -8 -67 11 -79 26 -17 51 4 57 50 4 31 10 39 30 44 30 7 33 30 5 45 -19 10 -20 15 -10 109 9 81 8 101 -3 112 -16 16 -22 17 -42 4z"/>
 <path d="M2411 1744 c-12 -15 -21 -35 -21 -46 0 -10 -7 -21 -15 -24 -17 -7 -21 -44 -5 -44 6 0 10 -13 10 -30 0 -16 7 -48 16 -70 15 -36 19 -40 53 -40 49 0 101 33 101 64 0 29 -13 44 -63 71 -37 20 -47 44 -28 74 7 11 14 10 37 -7 16 -11 38 -29 48 -41 21 -23 56 -28 56 -8 0 24 -123 127 -153 127 -8 0 -25 -12 -36 -26z m66 -165 c14 -14 6 -39 -12 -39 -7 0 -15 11 -17 25 -6 26 10 33 29 14z"/>
 <path d="M2694 1760 c-17 -4 -36 -10 -42 -14 -16 -9 -15 -59 0 -74 26 -26 79 -2 57 25 -9 9 -7 14 6 19 21 9 65 -12 65 -30 0 -30 -30 -46 -89 -46 -85 0 -104 -33 -55 -97 48 -63 112 -80 140 -38 28 42 -15 75 -51 39 -15 -15 -17 -15 -35 1 -29 26 -25 32 28 37 90 9 134 49 119 110 -12 45 -86 80 -143 68z"/>
 <path d="M2907 1764 c-4 -4 -7 -51 -7 -105 0 -93 -1 -98 -22 -101 -30 -4 -34 -32 -7 -44 18 -9 22 -19 23 -60 1 -46 3 -49 29 -52 29 -4 32 0 42 61 4 27 11 37 24 37 11 0 21 6 24 14 6 15 -11 36 -30 36 -9 0 -13 29 -15 108 -3 106 -3 107 -28 110 -14 2 -29 0 -33 -4z"/>
 <path d="M4975 1444 c-38 -7 -85 -16 -102 -19 l-33 -6 0 -68 c0 -137 -13 -372 -20 -359 -4 7 -24 78 -45 158 -20 80 -40 148 -43 152 -6 6 -211 -29 -220 -38 -2 -1 3 -32 11 -69 13 -56 23 -74 67 -121 28 -29 65 -84 82 -121 27 -57 32 -80 36 -169 4 -88 1 -114 -17 -172 -22 -66 -22 -71 -7 -129 21 -81 21 -82 -19 -99 -19 -8 -35 -18 -35 -23 0 -25 24 -72 35 -68 6 3 63 19 125 37 62 17 121 35 130 40 11 6 20 28 25 57 11 74 65 356 69 361 4 4 15 -42 41 -178 9 -47 21 -109 26 -138 7 -33 15 -52 22 -49 7 2 56 19 111 37 l98 32 -6 32 c-17 90 -244 930 -252 932 -5 1 -40 -4 -79 -12z"/>
 <path d="M591 1408 c-5 -13 -32 -91 -61 -173 -28 -83 -62 -179 -75 -215 -13 -36 -42 -120 -65 -187 -24 -68 -45 -123 -48 -123 -3 0 -16 10 -29 22 -13 12 -25 19 -28 16 -4 -4 -80 -204 -88 -231 -3 -11 89 -43 243 -83 114 -30 151 -36 240 -36 114 1 154 12 209 58 107 90 70 200 -142 421 l-99 102 47 168 c31 107 44 172 39 181 -5 7 -37 34 -72 58 l-62 45 -9 -23z m120 -713 c33 -53 27 -65 -37 -65 -31 0 -71 7 -89 16 l-33 15 20 67 c10 37 22 74 24 82 4 11 18 1 51 -35 25 -27 54 -63 64 -80z"/>
 <path d="M1143 1299 c-136 -26 -214 -134 -217 -299 -1 -111 23 -171 97 -244 123 -120 262 -153 394 -92 73 33 95 55 124 120 30 68 29 188 -1 269 -40 108 -175 226 -275 242 -22 3 -49 8 -60 9 -11 2 -39 0 -62 -5z m219 -326 c42 -37 78 -142 59 -172 -7 -11 -10 -9 -15 7 -9 27 -62 72 -86 72 -48 0 -64 -59 -29 -104 29 -37 18 -42 -34 -17 -83 40 -120 129 -76 185 44 56 135 71 181 29z"/>
 <path d="M3943 1246 c-72 -11 -134 -23 -136 -26 -3 -3 -15 -74 -26 -159 -11 -84 -22 -156 -25 -158 -2 -2 -17 18 -33 46 -15 28 -31 51 -34 51 -3 0 -20 -31 -39 -70 -18 -38 -35 -69 -36 -67 -2 1 -12 59 -24 127 -12 69 -25 128 -29 133 -4 4 -74 6 -156 5 l-148 -3 27 -32 c14 -17 33 -50 41 -74 15 -41 14 -43 -11 -76 l-27 -35 23 -151 c12 -84 24 -170 27 -192 3 -22 13 -85 22 -140 l17 -100 139 0 140 0 31 58 30 58 37 -81 36 -81 88 3 88 3 7 40 c5 22 14 77 21 123 l13 84 -29 36 c-57 70 -81 138 -85 240 -8 164 53 308 155 372 65 40 73 48 73 70 0 24 -2 24 -177 -4z"/>
 <path d="M2785 1160 c-125 -19 -184 -74 -206 -194 -18 -98 24 -260 84 -325 112 -120 320 -157 471 -82 36 18 66 38 66 45 0 7 -65 90 -145 185 -80 94 -145 174 -145 177 0 4 15 4 32 0 43 -9 101 -50 130 -92 13 -19 27 -33 31 -31 16 5 127 143 127 158 0 16 -49 65 -90 91 -43 26 -150 58 -224 68 -39 5 -73 9 -76 8 -3 0 -27 -4 -55 -8z m78 -355 c43 -52 75 -100 71 -106 -4 -7 -26 -9 -57 -6 -41 3 -56 11 -78 35 -16 17 -31 47 -35 67 -7 38 2 105 14 105 4 0 43 -43 85 -95z"/>
 <path d="M1738 1131 c-25 -10 -60 -28 -77 -40 -27 -20 -29 -24 -19 -49 6 -15 11 -72 11 -127 1 -87 -3 -109 -26 -166 -15 -36 -27 -72 -27 -80 0 -29 60 -117 110 -162 66 -60 130 -81 224 -75 39 3 86 12 104 22 43 22 109 90 132 136 l18 36 -93 33 c-88 31 -95 32 -117 17 -48 -34 -143 -3 -175 57 -32 60 -12 188 35 223 46 36 125 -8 156 -87 l17 -42 102 8 c56 4 104 8 106 10 8 9 -30 99 -64 149 -45 69 -90 103 -174 132 -82 29 -176 31 -243 5z"/>
 <path d="M4162 1132 c-106 -38 -172 -138 -180 -271 -2 -42 1 -95 7 -118 26 -95 138 -210 243 -248 110 -39 253 -11 322 65 62 69 82 186 51 304 -50 190 -276 327 -443 268z m261 -325 c35 -32 57 -87 57 -139 0 -36 -10 -35 -35 5 -24 37 -68 56 -93 41 -25 -16 -26 -60 -3 -99 24 -41 13 -44 -44 -12 -70 40 -105 121 -75 178 15 27 79 58 122 59 28 0 45 -8 71 -33z"/>
 <path d="M1870 864 c-22 -58 2 -124 45 -124 34 0 15 130 -21 144 -9 4 -18 -4 -24 -20z"/>
 <path d="M2196 823 c-3 -3 -6 -37 -6 -74 l0 -68 43 -11 c23 -6 49 -13 57 -16 19 -7 272 -64 282 -64 4 0 -4 19 -17 43 -14 23 -32 65 -41 92 -9 28 -17 51 -18 52 -1 1 -58 11 -126 22 -69 12 -134 23 -146 26 -12 3 -24 2 -28 -2z"/>
 <path d="M3200 804 c-12 -13 -11 -20 2 -42 25 -41 36 -38 28 8 -9 50 -13 55 -30 34z"/>
 <path d="M2090 750 c0 -5 5 -10 10 -10 6 0 10 5 10 10 0 6 -4 10 -10 10 -5 0 -10 -4 -10 -10z"/>
 <path d="M2692 353 c-29 -44 -30 -49 -14 -61 20 -15 269 -152 277 -152 11 0 125 184 118 191 -5 3 -62 16 -128 28 -66 13 -142 27 -168 32 -26 5 -49 9 -51 9 -1 0 -17 -21 -34 -47z"/>
 <path d="M3253 1439 c-17 -17 10 -65 46 -83 24 -13 31 -13 46 -2 17 12 16 16 -16 54 -35 43 -56 51 -76 31z"/>
 </g>
<g id="layer107" fill="#a0ddea" stroke="none">
 <path d="M0 1050 l0 -1050 2710 0 2710 0 0 1050 0 1050 -2710 0 -2710 0 0 -1050z m4780 993 c15 -20 20 -36 16 -56 -3 -17 0 -37 9 -50 21 -33 86 -253 88 -299 1 -31 -4 -45 -22 -59 -31 -26 -83 -25 -107 2 l-19 21 -5 -23 c-3 -13 -20 -34 -38 -46 -26 -17 -39 -20 -63 -13 -24 7 -37 4 -66 -16 -42 -28 -54 -29 -92 -9 -30 15 -45 45 -56 109 -5 32 -8 36 -18 22 -18 -24 -63 -33 -131 -25 -48 6 -65 13 -84 34 -24 28 -23 56 4 84 11 12 7 20 -26 52 -72 70 -62 147 21 169 23 7 51 9 62 6 11 -2 30 2 43 11 17 11 37 14 66 10 32 -4 47 -1 66 14 16 12 41 19 71 19 25 0 55 7 65 15 11 8 33 15 49 15 16 0 40 9 54 20 38 29 87 26 113 -7z m-3829 -24 c22 -11 58 -36 79 -56 22 -19 40 -30 40 -24 0 21 40 51 69 51 19 0 36 -8 48 -22 15 -20 28 -23 85 -23 65 0 69 -1 107 -39 23 -22 44 -48 47 -58 7 -25 20 -15 27 21 5 22 14 32 41 41 50 16 84 -1 113 -58 1 -2 11 6 22 17 25 25 77 28 109 5 13 -9 33 -13 45 -10 12 3 40 1 62 -5 22 -5 63 -11 91 -12 28 -1 58 -8 67 -15 56 -47 3 -287 -72 -326 -41 -22 -77 -20 -136 8 -56 26 -95 21 -95 -13 0 -35 -33 -63 -74 -63 -43 0 -71 21 -81 60 l-7 27 -14 -26 c-17 -33 -55 -44 -100 -29 -38 13 -47 33 -42 93 3 41 3 42 -27 38 -16 -2 -57 -5 -89 -5 -59 -1 -60 -1 -94 44 -26 34 -40 44 -58 42 -31 -4 -189 71 -203 96 -16 31 -13 60 8 79 19 16 19 17 -5 35 -13 11 -28 16 -34 13 -17 -10 -10 -126 9 -175 12 -28 30 -51 47 -61 43 -23 45 -88 4 -129 -43 -43 -113 -16 -153 58 -77 141 -95 307 -43 385 45 68 120 81 207 36z m3025 -170 c12 -13 20 -49 27 -123 8 -94 7 -109 -9 -143 -26 -52 -64 -69 -125 -56 -36 7 -51 6 -65 -4 -10 -7 -45 -13 -79 -14 -33 0 -77 0 -97 -1 -23 -1 -45 5 -56 15 -18 16 -20 16 -38 -4 -46 -50 -136 -69 -173 -35 -11 10 -28 39 -37 65 -10 25 -24 53 -31 62 -20 23 -19 72 1 100 9 13 16 32 16 42 0 28 54 77 86 77 15 0 55 -15 90 -34 34 -19 65 -32 68 -29 3 4 6 17 6 29 0 35 39 55 102 54 29 -1 70 2 91 6 26 4 44 2 62 -10 21 -14 25 -14 33 -1 10 19 58 33 89 27 12 -2 30 -13 39 -23z m-1638 -35 c12 -8 22 -22 22 -30 0 -19 7 -18 37 6 38 30 73 25 136 -20 30 -22 58 -40 60 -40 3 0 7 9 10 19 14 54 128 72 205 33 23 -13 42 -28 42 -35 1 -6 7 2 14 19 25 58 103 65 140 12 13 -19 15 -38 10 -103 -6 -77 -5 -81 20 -104 33 -31 33 -65 1 -95 -14 -13 -25 -31 -25 -40 0 -50 -43 -88 -90 -80 -51 8 -70 30 -70 80 0 51 -15 59 -53 28 -51 -43 -108 -31 -180 35 -26 24 -29 25 -38 8 -12 -21 -61 -47 -108 -58 -35 -8 -80 4 -93 24 -11 18 -42 -5 -46 -34 -10 -68 -100 -95 -142 -42 -16 20 -20 38 -17 63 2 24 -2 43 -15 61 -24 32 -15 76 16 91 19 8 24 22 33 96 9 69 15 89 33 104 27 22 68 23 98 2z m-1628 -346 c36 -26 82 -60 103 -75 45 -32 45 -33 -4 -190 -16 -53 -32 -109 -34 -124 -3 -16 -9 -39 -14 -52 -8 -21 -4 -30 30 -63 l39 -38 0 56 c0 197 95 351 245 397 124 39 247 18 364 -60 55 -37 78 -60 148 -146 l18 -23 58 29 c122 63 258 63 388 2 97 -46 190 -150 224 -249 14 -40 39 -51 151 -66 l51 -6 5 79 c14 241 198 357 487 307 52 -9 115 -26 140 -37 28 -12 47 -16 49 -9 4 11 285 12 407 1 60 -5 70 -9 73 -26 1 -11 5 -31 8 -45 l6 -25 15 29 c14 27 17 28 28 12 13 -16 13 -16 18 1 3 10 9 46 12 81 4 34 10 62 14 62 4 0 88 13 187 29 98 16 203 32 233 35 l53 7 -7 -59 -7 -59 81 -6 c44 -4 97 -13 117 -22 20 -8 39 -13 42 -11 2 3 -1 28 -8 56 -7 29 -9 55 -4 60 5 4 81 22 169 40 88 17 163 37 167 43 4 7 8 28 8 47 l0 35 128 23 c70 12 148 25 174 28 l47 7 10 -39 c5 -22 33 -127 62 -234 28 -107 55 -212 60 -232 5 -20 40 -157 79 -303 38 -147 70 -272 70 -279 0 -10 -337 -136 -362 -136 -5 0 -8 9 -8 20 0 27 -18 25 -22 -2 -3 -25 -15 -29 -248 -97 -175 -51 -152 -57 -189 51 -17 52 -31 100 -31 106 0 7 16 20 35 29 19 9 35 23 35 30 0 18 -4 17 -45 -11 -63 -43 -132 -61 -231 -61 -86 0 -95 2 -175 42 -46 23 -85 41 -86 40 -1 -1 -9 -56 -19 -122 -9 -66 -20 -123 -23 -126 -3 -4 -70 -9 -147 -12 l-142 -7 -12 30 c-12 30 -30 41 -30 18 0 -8 -50 -9 -192 -4 -106 4 -194 9 -196 11 -2 2 -13 61 -24 132 -11 70 -22 130 -24 132 -2 2 -25 -9 -51 -25 -26 -16 -68 -36 -93 -45 -50 -18 -54 -16 62 -41 l58 -13 -114 -175 c-63 -96 -120 -183 -128 -192 -12 -17 -21 -13 -123 43 -160 89 -339 191 -344 195 -2 2 27 51 64 109 37 58 66 108 64 109 -5 5 -381 96 -394 96 -6 0 -23 -20 -38 -45 -96 -151 -263 -217 -425 -167 -32 11 -80 33 -106 51 -50 34 -118 115 -144 168 l-16 33 -42 -25 c-117 -69 -279 -71 -405 -6 -49 26 -52 26 -44 0 4 -11 1 -44 -6 -72 -16 -70 -109 -166 -184 -190 -106 -35 -254 -32 -420 9 -88 22 -375 115 -375 121 0 4 11 25 24 47 13 23 43 95 67 161 51 142 69 172 112 183 35 9 35 9 216 524 l73 207 46 -31 c26 -18 76 -54 112 -80z m2650 -30 c47 -60 50 -88 13 -118 -33 -26 -68 -22 -114 12 -57 42 -75 104 -39 136 51 43 88 35 140 -30z"/>
 <path d="M4702 2021 c-21 -13 -11 -55 15 -59 28 -4 50 32 32 54 -13 16 -28 18 -47 5z"/>
 <path d="M4582 1977 c-9 -10 -9 -42 -1 -123 27 -285 29 -294 74 -294 37 0 49 23 34 67 -7 21 -20 110 -28 198 -16 160 -16 160 -42 163 -14 2 -31 -3 -37 -11z"/>
 <path d="M4455 1947 c-14 -11 -16 -21 -11 -48 3 -19 10 -101 16 -182 5 -81 15 -157 20 -168 11 -20 45 -25 69 -10 12 8 13 18 3 63 -7 29 -16 117 -21 195 -5 78 -12 146 -16 152 -9 15 -37 14 -60 -2z"/>
 <path d="M4323 1923 c-7 -2 -13 -11 -13 -18 0 -10 -14 -12 -58 -8 -46 4 -62 2 -75 -12 -21 -21 -21 -23 2 -61 11 -19 45 -44 90 -68 40 -21 70 -43 68 -49 -2 -7 -26 -12 -58 -12 -43 0 -54 -3 -57 -17 -5 -24 39 -40 96 -36 66 4 87 37 86 132 -1 106 -35 169 -81 149z m-28 -80 c25 -12 35 -23 35 -40 0 -27 -2 -28 -39 -9 -35 18 -55 42 -46 56 8 13 8 13 50 -7z"/>
 <path d="M4727 1905 c-13 -13 -12 -24 8 -94 13 -44 27 -101 31 -126 8 -58 33 -90 61 -81 12 4 23 12 26 19 6 16 -60 246 -79 274 -17 27 -27 28 -47 8z"/>
 <path d="M802 1985 c-62 -52 -62 -176 0 -325 21 -49 64 -100 84 -100 14 0 44 38 44 56 0 7 -11 15 -24 18 -16 4 -32 22 -47 53 -20 40 -24 64 -24 146 0 86 2 100 19 113 29 20 39 18 85 -21 46 -37 114 -115 108 -122 -3 -2 -21 6 -41 18 -35 20 -39 21 -54 5 -14 -14 -14 -18 -2 -29 22 -19 159 -82 165 -75 5 5 35 162 38 203 1 14 -4 20 -18 20 -15 0 -23 -12 -35 -51 l-15 -50 -53 57 c-53 58 -137 109 -178 109 -12 0 -36 -11 -52 -25z"/>
 <path d="M1222 1894 c-50 -35 -67 -120 -37 -191 23 -56 43 -73 84 -73 72 0 131 63 131 140 0 96 -109 173 -178 124z m99 -65 c23 -44 -9 -139 -47 -139 -31 0 -40 112 -12 148 16 19 46 14 59 -9z"/>
 <path d="M1506 1867 c-9 -7 -23 -48 -34 -102 -18 -84 -20 -90 -45 -93 -32 -4 -36 -31 -6 -39 15 -4 19 -11 14 -27 -18 -63 -17 -84 3 -95 28 -15 51 -4 58 28 12 53 15 60 32 59 9 0 24 2 32 6 8 3 22 2 30 -4 12 -7 12 -16 3 -52 -14 -51 -3 -71 36 -66 22 2 28 10 35 46 8 34 14 42 32 42 34 0 40 21 14 42 l-24 20 17 83 c22 107 22 122 -3 130 -40 13 -53 -15 -75 -163 -5 -33 -11 -42 -22 -38 -9 4 -21 1 -29 -5 -9 -7 -19 -7 -33 1 -23 12 -23 9 5 121 8 31 14 66 14 78 0 27 -32 44 -54 28z"/>
 <path d="M1776 1814 c-9 -8 -16 -20 -16 -25 0 -29 35 -85 80 -129 29 -27 49 -54 45 -59 -9 -16 -47 -13 -73 5 -26 18 -52 12 -52 -11 0 -10 22 -26 56 -42 48 -22 59 -23 84 -13 48 20 100 162 85 232 -8 33 -43 48 -60 25 -10 -14 -17 -13 -60 8 -57 29 -68 30 -89 9z m106 -71 c28 -27 36 -57 19 -67 -9 -6 -71 58 -71 73 0 9 11 21 19 21 3 0 18 -12 33 -27z"/>
 <path d="M1740 1670 c0 -13 5 -20 13 -17 6 2 12 10 12 17 0 7 -6 15 -12 18 -8 2 -13 -5 -13 -18z"/>
 <path d="M3881 1821 c-11 -7 -11 -20 -2 -73 6 -36 11 -81 11 -101 0 -32 -3 -37 -23 -37 -39 0 -54 28 -61 113 -7 92 -9 97 -42 97 -34 0 -37 -15 -24 -107 15 -113 -4 -145 -50 -86 -18 23 -21 39 -20 93 1 36 2 71 1 78 -1 13 -57 17 -64 5 -3 -5 -8 -61 -11 -125 -7 -111 -6 -117 13 -128 25 -13 61 2 61 26 0 13 5 12 26 -5 33 -26 68 -27 94 -1 18 18 22 18 54 5 50 -21 73 -19 102 11 25 25 26 27 19 117 -4 51 -11 100 -16 110 -10 18 -45 22 -68 8z"/>
 <path d="M3372 1774 c-13 -9 -24 -30 -28 -55 -4 -21 -10 -39 -15 -39 -14 0 -10 -37 5 -43 7 -3 16 -21 19 -40 8 -51 35 -87 64 -87 32 0 78 25 97 51 21 31 6 53 -54 84 -39 20 -50 31 -50 50 0 39 18 39 75 0 51 -36 75 -39 75 -11 0 14 -110 89 -145 100 -12 3 -30 -1 -43 -10z m77 -173 c12 -8 12 -12 2 -25 -16 -19 -27 -14 -34 14 -5 21 8 26 32 11z"/>
 <path d="M2270 1780 c-10 -6 -18 -39 -25 -102 -9 -86 -12 -92 -35 -98 -31 -7 -33 -32 -3 -45 18 -7 21 -15 15 -40 -10 -50 -8 -67 11 -79 26 -17 51 4 57 50 4 31 10 39 30 44 30 7 33 30 5 45 -19 10 -20 15 -10 109 9 81 8 101 -3 112 -16 16 -22 17 -42 4z"/>
 <path d="M2411 1744 c-12 -15 -21 -35 -21 -46 0 -10 -7 -21 -15 -24 -17 -7 -21 -44 -5 -44 6 0 10 -13 10 -30 0 -16 7 -48 16 -70 15 -36 19 -40 53 -40 49 0 101 33 101 64 0 29 -13 44 -63 71 -37 20 -47 44 -28 74 7 11 14 10 37 -7 16 -11 38 -29 48 -41 21 -23 56 -28 56 -8 0 24 -123 127 -153 127 -8 0 -25 -12 -36 -26z m66 -165 c14 -14 6 -39 -12 -39 -7 0 -15 11 -17 25 -6 26 10 33 29 14z"/>
 <path d="M2694 1760 c-17 -4 -36 -10 -42 -14 -16 -9 -15 -59 0 -74 26 -26 79 -2 57 25 -9 9 -7 14 6 19 21 9 65 -12 65 -30 0 -30 -30 -46 -89 -46 -85 0 -104 -33 -55 -97 48 -63 112 -80 140 -38 28 42 -15 75 -51 39 -15 -15 -17 -15 -35 1 -29 26 -25 32 28 37 90 9 134 49 119 110 -12 45 -86 80 -143 68z"/>
 <path d="M2907 1764 c-4 -4 -7 -51 -7 -105 0 -93 -1 -98 -22 -101 -30 -4 -34 -32 -7 -44 18 -9 22 -19 23 -60 1 -46 3 -49 29 -52 29 -4 32 0 42 61 4 27 11 37 24 37 11 0 21 6 24 14 6 15 -11 36 -30 36 -9 0 -13 29 -15 108 -3 106 -3 107 -28 110 -14 2 -29 0 -33 -4z"/>
 <path d="M1870 864 c-22 -58 2 -124 45 -124 34 0 15 130 -21 144 -9 4 -18 -4 -24 -20z"/>
 <path d="M3200 804 c-12 -13 -11 -20 2 -42 25 -41 36 -38 28 8 -9 50 -13 55 -30 34z"/>
 <path d="M2090 750 c0 -5 5 -10 10 -10 6 0 10 5 10 10 0 6 -4 10 -10 10 -5 0 -10 -4 -10 -10z"/>
 <path d="M3253 1439 c-17 -17 10 -65 46 -83 24 -13 31 -13 46 -2 17 12 16 16 -16 54 -35 43 -56 51 -76 31z"/>
 </g>
<g id="layer108" fill="#feffff" stroke="none">
 <path d="M0 1050 l0 -1050 2710 0 2710 0 0 1050 0 1050 -2710 0 -2710 0 0 -1050z m4780 993 c15 -20 20 -36 16 -56 -3 -17 0 -37 9 -50 15 -24 85 -245 85 -271 0 -25 15 -27 103 -13 l84 14 31 -101 c28 -89 119 -425 143 -528 5 -20 40 -157 79 -303 38 -147 70 -272 70 -279 0 -10 -337 -136 -362 -136 -5 0 -8 9 -8 20 0 27 -18 25 -22 -2 -3 -25 -15 -29 -248 -97 -170 -49 -157 -49 -171 -2 -8 27 -18 41 -32 43 -14 2 -24 19 -39 66 -16 52 -22 62 -36 57 -41 -17 -142 -27 -195 -21 -36 5 -88 22 -135 46 -42 21 -77 38 -79 37 -1 -1 -9 -56 -19 -122 -9 -66 -20 -123 -23 -126 -3 -4 -70 -9 -147 -12 l-142 -7 -12 30 c-12 29 -30 41 -30 20 0 -12 -94 -13 -269 -3 l-121 6 -6 39 c-6 34 -10 38 -35 38 -23 0 -28 5 -31 28 -3 23 -19 3 -115 -143 -61 -94 -117 -178 -125 -187 -12 -17 -21 -13 -123 43 -161 90 -339 191 -344 195 -2 2 4 15 13 29 16 25 16 25 -16 45 -18 11 -36 20 -40 20 -15 0 -7 20 32 82 30 45 37 64 28 69 -14 7 -267 69 -283 69 -6 0 -23 -20 -38 -45 -96 -151 -263 -217 -425 -167 -32 11 -80 33 -106 51 -50 34 -118 115 -144 168 l-16 33 -42 -25 c-117 -69 -279 -71 -405 -6 -49 26 -52 26 -44 0 4 -11 1 -44 -6 -72 -16 -70 -109 -166 -184 -190 -106 -35 -254 -32 -420 9 -80 20 -375 114 -375 120 0 3 7 19 16 35 18 36 20 32 -29 53 l-38 15 26 51 c14 28 46 106 70 172 48 130 70 162 114 171 24 5 31 16 54 79 14 40 69 199 123 353 53 154 100 283 103 287 4 4 73 -40 154 -98 141 -100 148 -107 142 -134 -5 -22 -1 -32 21 -49 15 -11 31 -21 36 -21 5 0 25 16 45 36 20 20 61 48 92 63 49 23 69 26 157 26 95 0 104 -2 175 -37 83 -41 151 -96 192 -155 l27 -39 75 37 c90 45 163 57 260 40 156 -27 276 -116 346 -260 17 -36 33 -68 35 -70 3 -4 138 -29 160 -30 7 -1 13 27 16 72 10 131 70 223 180 272 52 24 81 29 166 33 96 4 102 6 87 22 -8 9 -15 35 -15 57 0 50 -15 58 -53 27 -51 -43 -108 -31 -180 35 -26 24 -29 25 -38 8 -12 -21 -61 -47 -108 -58 -35 -8 -80 4 -93 24 -11 18 -42 -5 -46 -34 -10 -68 -100 -95 -142 -42 -16 20 -20 38 -17 63 2 24 -2 43 -15 61 -24 32 -15 76 16 91 19 8 24 22 33 96 12 94 30 122 82 122 32 0 71 -25 71 -46 0 -19 7 -18 37 6 38 30 73 25 136 -20 30 -22 58 -40 60 -40 3 0 7 9 10 19 14 54 128 72 205 33 23 -13 42 -28 42 -35 1 -6 7 2 14 19 25 58 103 65 140 12 13 -19 15 -38 10 -103 -6 -77 -5 -81 20 -104 33 -31 33 -65 1 -95 -14 -13 -25 -31 -25 -40 0 -22 -19 -59 -36 -69 -24 -14 -15 -23 39 -41 28 -9 58 -20 65 -23 6 -2 12 2 12 11 0 13 14 16 80 16 l79 0 -24 36 c-14 20 -25 47 -25 60 0 41 55 76 102 66 10 -2 36 -27 58 -55 32 -39 41 -58 38 -79 -4 -27 -4 -28 46 -28 28 0 75 -3 104 -6 42 -6 52 -10 52 -25 0 -21 16 -26 23 -6 4 9 8 9 16 -2 7 -11 11 1 17 47 3 34 10 64 13 67 7 4 301 51 449 73 l63 9 -7 -64 c-5 -54 -4 -63 10 -63 9 0 24 -4 34 -9 19 -10 146 -41 150 -37 1 2 -4 30 -12 64 -16 69 -26 59 87 82 59 12 72 24 36 35 -23 8 -45 51 -54 109 -5 32 -8 36 -18 22 -18 -24 -63 -33 -131 -25 -48 6 -65 13 -84 34 -24 28 -23 56 4 84 11 12 7 20 -26 52 -72 70 -62 147 21 169 23 7 51 9 62 6 11 -2 30 2 43 11 17 11 37 14 66 10 32 -4 47 -1 66 14 16 12 41 19 71 19 25 0 55 7 65 15 11 8 33 15 49 15 16 0 40 9 54 20 38 29 87 26 113 -7z m-3829 -24 c22 -11 58 -36 79 -56 22 -19 40 -30 40 -24 0 21 40 51 69 51 19 0 36 -8 48 -22 15 -20 28 -23 85 -23 65 0 69 -1 107 -39 23 -22 44 -48 47 -58 7 -25 20 -15 27 21 5 22 14 32 41 41 50 16 84 -1 113 -58 1 -2 11 6 22 17 25 25 77 28 109 5 13 -9 33 -13 45 -10 12 3 40 1 62 -5 22 -5 63 -11 91 -12 28 -1 58 -8 67 -15 56 -47 3 -287 -72 -326 -41 -22 -77 -20 -136 8 -56 26 -95 21 -95 -13 0 -35 -33 -63 -74 -63 -43 0 -71 21 -81 60 l-7 27 -14 -26 c-17 -33 -55 -44 -100 -29 -38 13 -47 33 -42 93 3 41 3 42 -27 38 -16 -2 -57 -5 -89 -5 -59 -1 -60 -1 -94 44 -26 34 -40 44 -58 42 -31 -4 -189 71 -203 96 -16 31 -13 60 8 79 19 16 19 17 -5 35 -13 11 -28 16 -34 13 -17 -10 -10 -126 9 -175 12 -28 30 -51 47 -61 43 -23 45 -88 4 -129 -43 -43 -113 -16 -153 58 -77 141 -95 307 -43 385 45 68 120 81 207 36z m3025 -170 c12 -13 20 -49 27 -123 8 -94 7 -109 -9 -143 -26 -52 -64 -69 -125 -56 -36 7 -51 6 -65 -4 -10 -7 -45 -13 -79 -14 -33 0 -77 0 -97 -1 -23 -1 -45 5 -56 15 -18 16 -20 16 -38 -4 -46 -50 -136 -69 -173 -35 -11 10 -28 39 -37 65 -10 25 -24 53 -31 62 -20 23 -19 72 1 100 9 13 16 32 16 42 0 28 54 77 86 77 15 0 55 -15 90 -34 34 -19 65 -32 68 -29 3 4 6 17 6 29 0 35 39 55 102 54 29 -1 70 2 91 6 26 4 44 2 62 -10 21 -14 25 -14 33 -1 10 19 58 33 89 27 12 -2 30 -13 39 -23z"/>
 <path d="M4702 2021 c-21 -13 -11 -55 15 -59 28 -4 50 32 32 54 -13 16 -28 18 -47 5z"/>
 <path d="M4582 1977 c-9 -10 -9 -42 -1 -123 27 -285 29 -294 74 -294 37 0 49 23 34 67 -7 21 -20 110 -28 198 -16 160 -16 160 -42 163 -14 2 -31 -3 -37 -11z"/>
 <path d="M4455 1947 c-14 -11 -16 -21 -11 -48 3 -19 10 -101 16 -182 5 -81 15 -157 20 -168 11 -20 45 -25 69 -10 12 8 13 18 3 63 -7 29 -16 117 -21 195 -5 78 -12 146 -16 152 -9 15 -37 14 -60 -2z"/>
 <path d="M4323 1923 c-7 -2 -13 -11 -13 -18 0 -10 -14 -12 -58 -8 -46 4 -62 2 -75 -12 -21 -21 -21 -23 2 -61 11 -19 45 -44 90 -68 40 -21 70 -43 68 -49 -2 -7 -26 -12 -58 -12 -43 0 -54 -3 -57 -17 -5 -24 39 -40 96 -36 66 4 87 37 86 132 -1 106 -35 169 -81 149z m-28 -80 c25 -12 35 -23 35 -40 0 -27 -2 -28 -39 -9 -35 18 -55 42 -46 56 8 13 8 13 50 -7z"/>
 <path d="M4727 1905 c-13 -13 -12 -24 8 -94 13 -44 27 -101 31 -126 8 -58 33 -90 61 -81 12 4 23 12 26 19 6 16 -60 246 -79 274 -17 27 -27 28 -47 8z"/>
 <path d="M2270 1780 c-10 -6 -18 -39 -25 -102 -9 -86 -12 -92 -35 -98 -31 -7 -33 -32 -3 -45 18 -7 21 -15 15 -40 -10 -50 -8 -67 11 -79 26 -17 51 4 57 50 4 31 10 39 30 44 30 7 33 30 5 45 -19 10 -20 15 -10 109 9 81 8 101 -3 112 -16 16 -22 17 -42 4z"/>
 <path d="M2411 1744 c-12 -15 -21 -35 -21 -46 0 -10 -7 -21 -15 -24 -17 -7 -21 -44 -5 -44 6 0 10 -13 10 -30 0 -16 7 -48 16 -70 15 -36 19 -40 53 -40 49 0 101 33 101 64 0 29 -13 44 -63 71 -37 20 -47 44 -28 74 7 11 14 10 37 -7 16 -11 38 -29 48 -41 21 -23 56 -28 56 -8 0 24 -123 127 -153 127 -8 0 -25 -12 -36 -26z m66 -165 c14 -14 6 -39 -12 -39 -7 0 -15 11 -17 25 -6 26 10 33 29 14z"/>
 <path d="M2694 1760 c-17 -4 -36 -10 -42 -14 -16 -9 -15 -59 0 -74 26 -26 79 -2 57 25 -9 9 -7 14 6 19 21 9 65 -12 65 -30 0 -30 -30 -46 -89 -46 -85 0 -104 -33 -55 -97 48 -63 112 -80 140 -38 28 42 -15 75 -51 39 -15 -15 -17 -15 -35 1 -29 26 -25 32 28 37 90 9 134 49 119 110 -12 45 -86 80 -143 68z"/>
 <path d="M2907 1764 c-4 -4 -7 -51 -7 -105 0 -93 -1 -98 -22 -101 -30 -4 -34 -32 -7 -44 18 -9 22 -19 23 -60 1 -46 3 -49 29 -52 29 -4 32 0 42 61 4 27 11 37 24 37 11 0 21 6 24 14 6 15 -11 36 -30 36 -9 0 -13 29 -15 108 -3 106 -3 107 -28 110 -14 2 -29 0 -33 -4z"/>
 <path d="M4583 1511 c-13 -11 -23 -21 -23 -24 0 -2 23 0 50 6 46 9 70 27 36 27 -8 0 -20 2 -28 5 -7 2 -23 -4 -35 -14z"/>
 <path d="M3253 1439 c-17 -17 10 -65 46 -83 24 -13 31 -13 46 -2 17 12 16 16 -16 54 -35 43 -56 51 -76 31z"/>
 <path d="M771 1054 c0 -11 3 -14 6 -6 3 7 2 16 -1 19 -3 4 -6 -2 -5 -13z"/>
 <path d="M3178 473 c-26 -16 -43 -49 -30 -57 4 -2 25 -7 46 -10 l39 -7 -7 32 c-3 17 -6 38 -6 45 0 18 -9 17 -42 -3z"/>
 <path d="M802 1985 c-62 -52 -62 -176 0 -325 21 -49 64 -100 84 -100 14 0 44 38 44 56 0 7 -11 15 -24 18 -16 4 -32 22 -47 53 -20 40 -24 64 -24 146 0 86 2 100 19 113 29 20 39 18 85 -21 46 -37 114 -115 108 -122 -3 -2 -21 6 -41 18 -35 20 -39 21 -54 5 -14 -14 -14 -18 -2 -29 22 -19 159 -82 165 -75 5 5 35 162 38 203 1 14 -4 20 -18 20 -15 0 -23 -12 -35 -51 l-15 -50 -53 57 c-53 58 -137 109 -178 109 -12 0 -36 -11 -52 -25z"/>
 <path d="M1222 1894 c-50 -35 -67 -120 -37 -191 23 -56 43 -73 84 -73 72 0 131 63 131 140 0 96 -109 173 -178 124z m99 -65 c23 -44 -9 -139 -47 -139 -31 0 -40 112 -12 148 16 19 46 14 59 -9z"/>
 <path d="M1506 1867 c-9 -7 -23 -48 -34 -102 -18 -84 -20 -90 -45 -93 -32 -4 -36 -31 -6 -39 15 -4 19 -11 14 -27 -18 -63 -17 -84 3 -95 28 -15 51 -4 58 28 12 53 15 60 32 59 9 0 24 2 32 6 8 3 22 2 30 -4 12 -7 12 -16 3 -52 -14 -51 -3 -71 36 -66 22 2 28 10 35 46 8 34 14 42 32 42 34 0 40 21 14 42 l-24 20 17 83 c22 107 22 122 -3 130 -40 13 -53 -15 -75 -163 -5 -33 -11 -42 -22 -38 -9 4 -21 1 -29 -5 -9 -7 -19 -7 -33 1 -23 12 -23 9 5 121 8 31 14 66 14 78 0 27 -32 44 -54 28z"/>
 <path d="M1776 1814 c-9 -8 -16 -20 -16 -25 0 -29 35 -85 80 -129 29 -27 49 -54 45 -59 -9 -16 -47 -13 -73 5 -26 18 -52 12 -52 -11 0 -10 22 -26 56 -42 48 -22 59 -23 84 -13 48 20 100 162 85 232 -8 33 -43 48 -60 25 -10 -14 -17 -13 -60 8 -57 29 -68 30 -89 9z m106 -71 c28 -27 36 -57 19 -67 -9 -6 -71 58 -71 73 0 9 11 21 19 21 3 0 18 -12 33 -27z"/>
 <path d="M1740 1670 c0 -13 5 -20 13 -17 6 2 12 10 12 17 0 7 -6 15 -12 18 -8 2 -13 -5 -13 -18z"/>
 <path d="M3881 1821 c-11 -7 -11 -20 -2 -73 6 -36 11 -81 11 -101 0 -32 -3 -37 -23 -37 -39 0 -54 28 -61 113 -7 92 -9 97 -42 97 -34 0 -37 -15 -24 -107 15 -113 -4 -145 -50 -86 -18 23 -21 39 -20 93 1 36 2 71 1 78 -1 13 -57 17 -64 5 -3 -5 -8 -61 -11 -125 -7 -111 -6 -117 13 -128 25 -13 61 2 61 26 0 13 5 12 26 -5 33 -26 68 -27 94 -1 18 18 22 18 54 5 50 -21 73 -19 102 11 25 25 26 27 19 117 -4 51 -11 100 -16 110 -10 18 -45 22 -68 8z"/>
 <path d="M3372 1774 c-13 -9 -24 -30 -28 -55 -4 -21 -10 -39 -15 -39 -14 0 -10 -37 5 -43 7 -3 16 -21 19 -40 8 -51 35 -87 64 -87 32 0 78 25 97 51 21 31 6 53 -54 84 -39 20 -50 31 -50 50 0 39 18 39 75 0 51 -36 75 -39 75 -11 0 14 -110 89 -145 100 -12 3 -30 -1 -43 -10z m77 -173 c12 -8 12 -12 2 -25 -16 -19 -27 -14 -34 14 -5 21 8 26 32 11z"/>
 </g>

</svg>